  0
SECTION
  2
HEADER
  9
$ACADVER
  1
AC1018
  9
$ACADMAINTVER
 70
     0
  9
$DWGCODEPAGE
  3
ANSI_1252
  9
$INSBASE
 10
-27152.8791656953
 20
-11780.51865328661
 30
0.0
  9
$EXTMIN
 10
-27390.73235925064
 20
-11932.81678056147
 30
0.0
  9
$EXTMAX
 10
-27008.18767739848
 20
-11536.00105301722
 30
0.0
  9
$LIMMIN
 10
0.0
 20
0.0
  9
$LIMMAX
 10
420.0
 20
297.0
  9
$ORTHOMODE
 70
     0
  9
$REGENMODE
 70
     1
  9
$FILLMODE
 70
     1
  9
$QTEXTMODE
 70
     0
  9
$MIRRTEXT
 70
     0
  9
$LTSCALE
 40
1.0
  9
$ATTMODE
 70
     1
  9
$TEXTSIZE
 40
8.603662667082971
  9
$TRACEWID
 40
1.0
  9
$TEXTSTYLE
  7
Standard
  9
$CLAYER
  8
www.archlounge.com Layer 01
  9
$CELTYPE
  6
ByLayer
  9
$CECOLOR
 62
   256
  9
$CELTSCALE
 40
1.0
  9
$DISPSILH
 70
     0
  9
$DIMSCALE
 40
1.0
  9
$DIMASZ
 40
2.5
  9
$DIMEXO
 40
0.625
  9
$DIMDLI
 40
3.75
  9
$DIMRND
 40
0.0
  9
$DIMDLE
 40
0.0
  9
$DIMEXE
 40
1.25
  9
$DIMTP
 40
0.0
  9
$DIMTM
 40
0.0
  9
$DIMTXT
 40
2.5
  9
$DIMCEN
 40
2.5
  9
$DIMTSZ
 40
0.0
  9
$DIMTOL
 70
     0
  9
$DIMLIM
 70
     0
  9
$DIMTIH
 70
     0
  9
$DIMTOH
 70
     0
  9
$DIMSE1
 70
     0
  9
$DIMSE2
 70
     0
  9
$DIMTAD
 70
     1
  9
$DIMZIN
 70
     8
  9
$DIMBLK
  1

  9
$DIMASO
 70
     1
  9
$DIMSHO
 70
     1
  9
$DIMPOST
  1

  9
$DIMAPOST
  1

  9
$DIMALT
 70
     0
  9
$DIMALTD
 70
     3
  9
$DIMALTF
 40
0.03937007874016
  9
$DIMLFAC
 40
1.0
  9
$DIMTOFL
 70
     1
  9
$DIMTVP
 40
0.0
  9
$DIMTIX
 70
     0
  9
$DIMSOXD
 70
     0
  9
$DIMSAH
 70
     0
  9
$DIMBLK1
  1

  9
$DIMBLK2
  1

  9
$DIMSTYLE
  2
ISO-25
  9
$DIMCLRD
 70
     0
  9
$DIMCLRE
 70
     0
  9
$DIMCLRT
 70
     0
  9
$DIMTFAC
 40
1.0
  9
$DIMGAP
 40
0.625
  9
$DIMJUST
 70
     0
  9
$DIMSD1
 70
     0
  9
$DIMSD2
 70
     0
  9
$DIMTOLJ
 70
     0
  9
$DIMTZIN
 70
     8
  9
$DIMALTZ
 70
     0
  9
$DIMALTTZ
 70
     0
  9
$DIMUPT
 70
     0
  9
$DIMDEC
 70
     2
  9
$DIMTDEC
 70
     2
  9
$DIMALTU
 70
     2
  9
$DIMALTTD
 70
     3
  9
$DIMTXSTY
  7
Standard
  9
$DIMAUNIT
 70
     0
  9
$DIMADEC
 70
     0
  9
$DIMALTRND
 40
0.0
  9
$DIMAZIN
 70
     0
  9
$DIMDSEP
 70
    44
  9
$DIMATFIT
 70
     3
  9
$DIMFRAC
 70
     0
  9
$DIMLDRBLK
  1

  9
$DIMLUNIT
 70
     2
  9
$DIMLWD
 70
    -2
  9
$DIMLWE
 70
    -2
  9
$DIMTMOVE
 70
     0
  9
$LUNITS
 70
     2
  9
$LUPREC
 70
     4
  9
$SKETCHINC
 40
1.0
  9
$FILLETRAD
 40
0.0
  9
$AUNITS
 70
     0
  9
$AUPREC
 70
     0
  9
$MENU
  1
.
  9
$ELEVATION
 40
0.0
  9
$PELEVATION
 40
0.0
  9
$THICKNESS
 40
0.0
  9
$LIMCHECK
 70
     0
  9
$CHAMFERA
 40
10.0
  9
$CHAMFERB
 40
10.0
  9
$CHAMFERC
 40
20.0
  9
$CHAMFERD
 40
0.0
  9
$SKPOLY
 70
     0
  9
$TDCREATE
 40
2453991.448553773
  9
$TDUCREATE
 40
2453991.406887107
  9
$TDUPDATE
 40
2454436.812824433
  9
$TDUUPDATE
 40
2454436.771157766
  9
$TDINDWG
 40
19.7153355440
  9
$TDUSRTIMER
 40
19.7153355440
  9
$USRTIMER
 70
     1
  9
$ANGBASE
 50
0.0
  9
$ANGDIR
 70
     0
  9
$PDMODE
 70
     0
  9
$PDSIZE
 40
0.0
  9
$PLINEWID
 40
0.0
  9
$SPLFRAME
 70
     0
  9
$SPLINETYPE
 70
     6
  9
$SPLINESEGS
 70
     8
  9
$HANDSEED
  5
1A3
  9
$SURFTAB1
 70
     6
  9
$SURFTAB2
 70
     6
  9
$SURFTYPE
 70
     6
  9
$SURFU
 70
     6
  9
$SURFV
 70
     6
  9
$UCSBASE
  2

  9
$UCSNAME
  2

  9
$UCSORG
 10
0.0
 20
0.0
 30
0.0
  9
$UCSXDIR
 10
1.0
 20
0.0
 30
0.0
  9
$UCSYDIR
 10
0.0
 20
1.0
 30
0.0
  9
$UCSORTHOREF
  2

  9
$UCSORTHOVIEW
 70
     0
  9
$UCSORGTOP
 10
0.0
 20
0.0
 30
0.0
  9
$UCSORGBOTTOM
 10
0.0
 20
0.0
 30
0.0
  9
$UCSORGLEFT
 10
0.0
 20
0.0
 30
0.0
  9
$UCSORGRIGHT
 10
0.0
 20
0.0
 30
0.0
  9
$UCSORGFRONT
 10
0.0
 20
0.0
 30
0.0
  9
$UCSORGBACK
 10
0.0
 20
0.0
 30
0.0
  9
$PUCSBASE
  2

  9
$PUCSNAME
  2

  9
$PUCSORG
 10
0.0
 20
0.0
 30
0.0
  9
$PUCSXDIR
 10
1.0
 20
0.0
 30
0.0
  9
$PUCSYDIR
 10
0.0
 20
1.0
 30
0.0
  9
$PUCSORTHOREF
  2

  9
$PUCSORTHOVIEW
 70
     0
  9
$PUCSORGTOP
 10
0.0
 20
0.0
 30
0.0
  9
$PUCSORGBOTTOM
 10
0.0
 20
0.0
 30
0.0
  9
$PUCSORGLEFT
 10
0.0
 20
0.0
 30
0.0
  9
$PUCSORGRIGHT
 10
0.0
 20
0.0
 30
0.0
  9
$PUCSORGFRONT
 10
0.0
 20
0.0
 30
0.0
  9
$PUCSORGBACK
 10
0.0
 20
0.0
 30
0.0
  9
$USERI1
 70
     0
  9
$USERI2
 70
     0
  9
$USERI3
 70
     0
  9
$USERI4
 70
     0
  9
$USERI5
 70
     0
  9
$USERR1
 40
0.0
  9
$USERR2
 40
0.0
  9
$USERR3
 40
0.0
  9
$USERR4
 40
0.0
  9
$USERR5
 40
0.0
  9
$WORLDVIEW
 70
     1
  9
$SHADEDGE
 70
     3
  9
$SHADEDIF
 70
    70
  9
$TILEMODE
 70
     1
  9
$MAXACTVP
 70
    64
  9
$PINSBASE
 10
0.0
 20
0.0
 30
0.0
  9
$PLIMCHECK
 70
     0
  9
$PEXTMIN
 10
26.66999878883363
 20
20.31999878883363
 30
0.0
  9
$PEXTMAX
 10
240.0299890995026
 20
182.8799890995025
 30
0.0
  9
$PLIMMIN
 10
-6.350006103515625
 20
-6.349999904632568
  9
$PLIMMAX
 10
273.0499877929688
 20
209.5499939918518
  9
$UNITMODE
 70
     0
  9
$VISRETAIN
 70
     1
  9
$PLINEGEN
 70
     0
  9
$PSLTSCALE
 70
     1
  9
$TREEDEPTH
 70
  3020
  9
$CMLSTYLE
  2
Standard
  9
$CMLJUST
 70
     0
  9
$CMLSCALE
 40
20.0
  9
$PROXYGRAPHICS
 70
     1
  9
$MEASUREMENT
 70
     1
  9
$CELWEIGHT
370
    -1
  9
$ENDCAPS
280
     0
  9
$JOINSTYLE
280
     0
  9
$LWDISPLAY
290
     0
  9
$INSUNITS
 70
     6
  9
$HYPERLINKBASE
  1

  9
$STYLESHEET
  1

  9
$XEDIT
290
     1
  9
$CEPSNTYPE
380
     0
  9
$PSTYLEMODE
290
     1
  9
$FINGERPRINTGUID
  2
{FDEAD578-A652-11D2-9A35-0060089B3A3F}
  9
$VERSIONGUID
  2
{1E753461-FA6F-4C79-A273-C6D74EA54936}
  9
$EXTNAMES
290
     1
  9
$PSVPSCALE
 40
0.0
  9
$OLESTARTUP
290
     0
  9
$SORTENTS
280
   127
  9
$INDEXCTL
280
     0
  9
$HIDETEXT
280
     1
  9
$XCLIPFRAME
290
     0
  9
$HALOGAP
280
     0
  9
$OBSCOLOR
 70
   257
  9
$OBSLTYPE
280
     0
  9
$INTERSECTIONDISPLAY
280
     0
  9
$INTERSECTIONCOLOR
 70
   257
  9
$DIMASSOC
280
     2
  9
$PROJECTNAME
  1

  0
ENDSEC
  0
SECTION
  2
CLASSES
  0
CLASS
  1
ACDBDICTIONARYWDFLT
  2
AcDbDictionaryWithDefault
  3
ObjectDBX Classes
 90
        0
 91
        1
280
     0
281
     0
  0
CLASS
  1
DICTIONARYVAR
  2
AcDbDictionaryVar
  3
ObjectDBX Classes
 90
        0
 91
        0
280
     0
281
     0
  0
CLASS
  1
IMAGE
  2
AcDbRasterImage
  3
ISM
 90
      127
 91
        0
280
     0
281
     1
  0
CLASS
  1
IMAGEDEF_REACTOR
  2
AcDbRasterImageDefReactor
  3
ISM
 90
        1
 91
        0
280
     0
281
     0
  0
CLASS
  1
SORTENTSTABLE
  2
AcDbSortentsTable
  3
ObjectDBX Classes
 90
        0
 91
        1
280
     0
281
     0
  0
CLASS
  1
IMAGEDEF
  2
AcDbRasterImageDef
  3
ISM
 90
        0
 91
        0
280
     0
281
     0
  0
CLASS
  1
RASTERVARIABLES
  2
AcDbRasterVariables
  3
ISM
 90
        0
 91
        0
280
     0
281
     0
  0
CLASS
  1
MATERIAL
  2
AcDbMaterial
  3
ObjectDBX Classes
 90
        0
 91
        0
280
     0
281
     0
  0
ENDSEC
  0
SECTION
  2
TABLES
  0
TABLE
  2
VPORT
  5
1F
330
0
100
AcDbSymbolTable
 70
     1
  0
VPORT
  5
20
330
1F
100
AcDbSymbolTableRecord
100
AcDbViewportTableRecord
  2
*Active
 70
     0
 10
0.0
 20
0.0
 11
1.0
 21
1.0
 12
-27152.63667027725
 22
-11779.41597636845
 13
0.0
 23
0.0
 14
10.0
 24
10.0
 15
10.0
 25
10.0
 16
0.0
 26
0.0
 36
1.0
 17
0.0
 27
0.0
 37
0.0
 40
5.617168788309921
 41
1.836456558773424
 42
50.0
 43
0.0
 44
0.0
 50
0.0
 51
0.0
 71
     0
 72
  1000
 73
     1
 74
     3
 75
     0
 76
     0
 77
     0
 78
     0
281
     0
 65
     1
110
0.0
120
0.0
130
0.0
111
1.0
121
0.0
131
0.0
112
0.0
122
1.0
132
0.0
 79
     0
146
0.0
  0
ENDTAB
  0
TABLE
  2
LTYPE
  5
1A
330
0
100
AcDbSymbolTable
 70
     1
  0
LTYPE
  5
1B
330
1A
100
AcDbSymbolTableRecord
100
AcDbLinetypeTableRecord
  2
ByBlock
 70
     0
  3

 72
    65
 73
     0
 40
0.0
  0
LTYPE
  5
1C
330
1A
100
AcDbSymbolTableRecord
100
AcDbLinetypeTableRecord
  2
ByLayer
 70
     0
  3

 72
    65
 73
     0
 40
0.0
  0
LTYPE
  5
A
330
1A
100
AcDbSymbolTableRecord
100
AcDbLinetypeTableRecord
  2
Continuous
 70
     0
  3
Solid line
 72
    65
 73
     0
 40
0.0
  0
ENDTAB
  0
TABLE
  2
LAYER
  5
12
102
{ACAD_XDICTIONARY
360
13
102
}
330
0
100
AcDbSymbolTable
 70
     2
  0
LAYER
  5
6
330
12
100
AcDbSymbolTableRecord
100
AcDbLayerTableRecord
  2
0
 70
     0
 62
     7
  6
Continuous
290
     0
370
    -3
390
7
  0
LAYER
  5
29
330
12
100
AcDbSymbolTableRecord
100
AcDbLayerTableRecord
  2
www.archlounge.com Layer 01
 70
     0
 62
     1
  6
Continuous
370
    -3
390
7
  0
ENDTAB
  0
TABLE
  2
STYLE
  5
16
330
0
100
AcDbSymbolTable
 70
     1
  0
STYLE
  5
17
330
16
100
AcDbSymbolTableRecord
100
AcDbTextStyleTableRecord
  2
Standard
 70
     0
 40
0.0
 41
1.0
 50
0.0
 71
     0
 42
8.603662667082971
  3
verdana.TTF
  4

1001
ACAD
1000
Verdana
1071
       34
  0
ENDTAB
  0
TABLE
  2
VIEW
  5
1D
330
0
100
AcDbSymbolTable
 70
     0
  0
ENDTAB
  0
TABLE
  2
UCS
  5
1E
330
0
100
AcDbSymbolTable
 70
     0
  0
ENDTAB
  0
TABLE
  2
APPID
  5
21
330
0
100
AcDbSymbolTable
 70
     1
  0
APPID
  5
18
330
21
100
AcDbSymbolTableRecord
100
AcDbRegAppTableRecord
  2
ACAD
 70
     0
  0
ENDTAB
  0
TABLE
  2
DIMSTYLE
  5
22
330
0
100
AcDbSymbolTable
 70
     1
100
AcDbDimStyleTable
 71
     0
  0
DIMSTYLE
105
2B
330
22
100
AcDbSymbolTableRecord
100
AcDbDimStyleTableRecord
  2
ISO-25
 70
     0
 41
2.5
 42
0.625
 43
3.75
 44
1.25
 73
     0
 74
     0
 77
     1
 78
     8
140
2.5
141
2.5
143
0.03937007874016
147
0.625
171
     3
172
     1
271
     2
272
     2
274
     3
278
    44
283
     0
284
     8
340
17
  0
ENDTAB
  0
TABLE
  2
BLOCK_RECORD
  5
1
330
0
100
AcDbSymbolTable
 70
     1
  0
BLOCK_RECORD
  5
2
102
{ACAD_XDICTIONARY
360
3
102
}
330
1
100
AcDbSymbolTableRecord
100
AcDbBlockTableRecord
  2
*Model_Space
340
C
  0
BLOCK_RECORD
  5
E
330
1
100
AcDbSymbolTableRecord
100
AcDbBlockTableRecord
  2
*Paper_Space
340
11
  0
BLOCK_RECORD
  5
2D
330
1
100
AcDbSymbolTableRecord
100
AcDbBlockTableRecord
  2
www.archlounge.com_allg.0005.dxf
340
0
310
2800000020000000200000000100080000000000000400000000000000000000000000000000000000000000000080000080000000808000800000008000800080800000C0C0C000C0DCC000F0CAA6000020400000206000002080000020A0000020C0000020E00000400000004020000040400000406000004080000040A0
310
000040C0000040E00000600000006020000060400000606000006080000060A0000060C0000060E00000800000008020000080400000806000008080000080A0000080C0000080E00000A0000000A0200000A0400000A0600000A0800000A0A00000A0C00000A0E00000C0000000C0200000C0400000C0600000C0800000C0
310
A00000C0C00000C0E00000E0000000E0200000E0400000E0600000E0800000E0A00000E0C00000E0E00040000000400020004000400040006000400080004000A0004000C0004000E00040200000402020004020400040206000402080004020A0004020C0004020E000404000004040200040404000404060004040800040
310
40A0004040C0004040E00040600000406020004060400040606000406080004060A0004060C0004060E00040800000408020004080400040806000408080004080A0004080C0004080E00040A0000040A0200040A0400040A0600040A0800040A0A00040A0C00040A0E00040C0000040C0200040C0400040C0600040C08000
310
40C0A00040C0C00040C0E00040E0000040E0200040E0400040E0600040E0800040E0A00040E0C00040E0E00080000000800020008000400080006000800080008000A0008000C0008000E00080200000802020008020400080206000802080008020A0008020C0008020E00080400000804020008040400080406000804080
310
008040A0008040C0008040E00080600000806020008060400080606000806080008060A0008060C0008060E00080800000808020008080400080806000808080008080A0008080C0008080E00080A0000080A0200080A0400080A0600080A0800080A0A00080A0C00080A0E00080C0000080C0200080C0400080C0600080C0
310
800080C0A00080C0C00080C0E00080E0000080E0200080E0400080E0600080E0800080E0A00080E0C00080E0E000C0000000C0002000C0004000C0006000C0008000C000A000C000C000C000E000C0200000C0202000C0204000C0206000C0208000C020A000C020C000C020E000C0400000C0402000C0404000C0406000C0
310
408000C040A000C040C000C040E000C0600000C0602000C0604000C0606000C0608000C060A000C060C000C060E000C0800000C0802000C0804000C0806000C0808000C080A000C080C000C080E000C0A00000C0A02000C0A04000C0A06000C0A08000C0A0A000C0A0C000C0A0E000C0C00000C0C02000C0C04000C0C06000
310
C0C08000C0C0A000F0FBFF00A4A0A000808080000000FF0000FF000000FFFF00FF000000FF00FF00FFFF0000FFFFFF0000000000000000000000000000000000000000000000000000000000000000000000000000000000000000000000000000000000000000000000000000000000000000000000000000000000000000
310
00000000000000000000000000000000000000000000000000000000000000000000000000000000000000000000000000000000000000000000000000000000000000000000000000000000000000000000000000000000000000000000000000000000000000000000000000000000000000000000000000000000000000
310
00000000000000000000000000000000000000000000000000000000000000000000000000000000000000000000000000000000000000F9F9F9F9F9000000000000000000000000F9F9F9F9F9000000000000000000F90000F9F9F9F9000000000000000000F9F9F9F900F9F9F9F9000000000000F9000000F9F9F9F9F9F9
310
000000000000F900F90000000000F9F9F900000000F90000F9F9F9F900F9F900F9F900000000F900F9000000000000F9F900000000F90000F9F9F9F9F9F9F9F9F9F9F9F9F900F9F90000F9F900000000F900000000F9F9000000F9F9F9F9F9F9F9F9F9000000F9F90000F9F900000000F900000000F9F900000000F9F9F9F9
310
00F9F900F90000F900F900F9F9000000F9F900000000F9F9000000000000F9F900F900F900F90000F9F9F9F900000000F90000000000F900F9F9000000F9F9F9F9F90000F9F9000000F9F9F90000F9F9F9000000000000F9F900F9F9F9F900F9F9F9F90000F9F9000000F9F9F9F9F9F9000000000000000000F9F9F9000000
310
00F9F9F9F900F900F900F9F9F9F9F90000000000000000000000000000000000F9F90000F9F9F9F9F9F9F9F9F900000000000000000000000000000000000000F9F900000000F9F9F9F9F900F900000000000000000000000000000000000000F900000000000000F9F9F9F9F9000000000000000000000000000000000000
310
F9F90000000000000000F9F9F9F900000000000000000000000000000000F9F9F9F9F9F9000000000000F9F9F90000000000000000000000000000000000000000000000000000000000F9F9000000000000000000000000000000000000000000000000000000000000000000000000000000000000000000000000000000
310
00000000000000000000000000000000000000000000000000000000000000000000000000000000000000000000000000000000000000000000000000000000000000000000000000000000000000000000000000000000000000000000000000000000000000000000000000000000000000000000000000000000000000
310
0000000000000000000000000000000000000000000000000000000000000000000000000000000000000000000000000000000000000000
102
{BLKREFS
331
2C
102
}
1001
ACAD
1000
DesignCenter Data
1002
{
1070
     1
1070
     6
1002
}
  0
ENDTAB
  0
ENDSEC
  0
SECTION
  2
BLOCKS
  0
BLOCK
  5
5
330
2
100
AcDbEntity
  8
0
100
AcDbBlockBegin
  2
*Model_Space
 70
     0
 10
0.0
 20
0.0
 30
0.0
  3
*Model_Space
  1

  0
ENDBLK
  5
B
330
2
100
AcDbEntity
  8
0
100
AcDbBlockEnd
  0
BLOCK
  5
F
330
E
100
AcDbEntity
 67
     1
  8
0
100
AcDbBlockBegin
  2
*Paper_Space
 70
     0
 10
0.0
 20
0.0
 30
0.0
  3
*Paper_Space
  1

  0
ENDBLK
  5
10
330
E
100
AcDbEntity
 67
     1
  8
0
100
AcDbBlockEnd
  0
BLOCK
  5
2E
330
2D
100
AcDbEntity
  8
0
100
AcDbBlockBegin
  2
www.archlounge.com_allg.0005.dxf
 70
     0
 10
0.0
 20
0.0
 30
0.0
  3
www.archlounge.com_allg.0005.dxf
  1

  0
ARC
  5
2F
330
2D
100
AcDbEntity
  8
www.archlounge.com Layer 01
100
AcDbCircle
 10
1.098310593119094
 20
0.4055945669842913
 30
0.0
 40
0.2796679263844802
100
AcDbArc
 50
120.3402311713692
 51
105.4983854720808
  0
ARC
  5
30
330
2D
100
AcDbEntity
  8
www.archlounge.com Layer 01
100
AcDbCircle
 10
0.0521961572194414
 20
0.4055945669842913
 30
0.0
 40
0.2796679263844802
100
AcDbArc
 50
43.40224679437565
 51
350.2293256884996
  0
LINE
  5
31
330
2D
100
AcDbEntity
  8
www.archlounge.com Layer 01
100
AcDbLine
 10
0.0147646698642348
 20
0.3039056678662746
 30
0.0
 11
0.0181559321463283
 21
0.3028213047709869
 31
0.0
  0
LINE
  5
32
330
2D
100
AcDbEntity
  8
www.archlounge.com Layer 01
100
AcDbLine
 10
1.090519150209729
 20
0.4252326941950742
 30
0.0
 11
1.102781228557432
 21
0.4165935971395811
 31
0.0
  0
LINE
  5
33
330
2D
100
AcDbEntity
  8
www.archlounge.com Layer 01
100
AcDbLine
 10
1.068619397650763
 20
0.424526794540725
 30
0.0
 11
1.090519150209729
 21
0.4252326941950742
 31
0.0
  0
LINE
  5
34
330
2D
100
AcDbEntity
  8
www.archlounge.com Layer 01
100
AcDbLine
 10
0.3928517248059506
 20
0.7323463086722768
 30
0.0
 11
0.3831302503676852
 21
0.7298394876324892
 31
0.0
  0
LINE
  5
35
330
2D
100
AcDbEntity
  8
www.archlounge.com Layer 01
100
AcDbLine
 10
0.4035139741645253
 20
0.7285860723677616
 30
0.0
 11
0.3928517248059506
 21
0.7323463086722768
 31
0.0
  0
LINE
  5
36
330
2D
100
AcDbEntity
  8
www.archlounge.com Layer 01
100
AcDbLine
 10
0.424524887046573
 20
0.7245124893634057
 30
0.0
 11
0.4035139741645253
 21
0.7285860723677616
 31
0.0
  0
LINE
  5
37
330
2D
100
AcDbEntity
  8
www.archlounge.com Layer 01
100
AcDbLine
 10
0.4223297165262921
 20
0.7160519671651855
 30
0.0
 11
0.424524887046573
 21
0.7245124893634057
 31
0.0
  0
LINE
  5
38
330
2D
100
AcDbEntity
  8
www.archlounge.com Layer 01
100
AcDbLine
 10
0.3947332920724875
 20
0.7038312086624501
 30
0.0
 11
0.4223297165262921
 21
0.7160519671651855
 31
0.0
  0
LINE
  5
39
330
2D
100
AcDbEntity
  8
www.archlounge.com Layer 01
100
AcDbLine
 10
0.3881477805043687
 20
0.7075914449687844
 30
0.0
 11
0.3947332920724875
 21
0.7038312086624501
 31
0.0
  0
LINE
  5
3A
330
2D
100
AcDbEntity
  8
www.archlounge.com Layer 01
100
AcDbLine
 10
0.3831302503676852
 20
0.7298394876324892
 30
0.0
 11
0.3881477805043687
 21
0.7075914449687844
 31
0.0
  0
LINE
  5
3B
330
2D
100
AcDbEntity
  8
www.archlounge.com Layer 01
100
AcDbLine
 10
0.9990473111611208
 20
0.6460805349252042
 30
0.0
 11
1.022351670450007
 21
0.6520777347341209
 31
0.0
  0
LINE
  5
3C
330
2D
100
AcDbEntity
  8
www.archlounge.com Layer 01
100
AcDbLine
 10
0.2630164952934137
 20
0.5610098361685232
 30
0.0
 11
0.2463869429484475
 21
0.5801794698490994
 31
0.0
  0
ARC
  5
3D
330
2D
100
AcDbEntity
  8
www.archlounge.com Layer 01
100
AcDbCircle
 10
0.0521961572194414
 20
0.4055945669842913
 30
0.0
 40
0.3240388971037669
100
AcDbArc
 50
43.00897350333428
 51
351.2021652719373
  0
ARC
  5
3E
330
2D
100
AcDbEntity
  8
www.archlounge.com Layer 01
100
AcDbCircle
 10
0.0521961572194414
 20
0.4055945669842913
 30
0.0
 40
0.2722769010988573
100
AcDbArc
 50
43.40224679437565
 51
350.2293256884996
  0
ARC
  5
3F
330
2D
100
AcDbEntity
  8
www.archlounge.com Layer 01
100
AcDbCircle
 10
1.098310593119094
 20
0.4055945669842913
 30
0.0
 40
0.2722769010988573
100
AcDbArc
 50
106.9855217509744
 51
111.945683475876
  0
ARC
  5
40
330
2D
100
AcDbEntity
  8
www.archlounge.com Layer 01
100
AcDbCircle
 10
1.098310593119094
 20
0.4055945669842913
 30
0.0
 40
0.3240388971037669
100
AcDbArc
 50
106.5773325651113
 51
112.6457383752723
  0
LINE
  5
41
330
2D
100
AcDbEntity
  8
www.archlounge.com Layer 01
100
AcDbLine
 10
1.002686196163267
 20
0.7284952784120833
 30
0.0
 11
1.009526658272079
 21
0.7302556193662895
 31
0.0
  0
LINE
  5
42
330
2D
100
AcDbEntity
  8
www.archlounge.com Layer 01
100
AcDbLine
 10
1.024224822613177
 20
0.6447989025418793
 30
0.0
 11
1.031065284721989
 21
0.6465592434960854
 31
0.0
  0
LINE
  5
43
330
2D
100
AcDbEntity
  8
www.archlounge.com Layer 01
100
AcDbLine
 10
0.2267472082749009
 20
0.5631421074667742
 30
0.0
 11
0.2221186915994622
 21
0.5684776070247608
 31
0.0
  0
LINE
  5
44
330
2D
100
AcDbEntity
  8
www.archlounge.com Layer 01
100
AcDbLine
 10
0.3006981884500419
 20
0.6366448906464939
 30
0.0
 11
0.3053267051254807
 21
0.6313093910903263
 31
0.0
  0
LINE
  5
45
330
2D
100
AcDbEntity
  8
www.archlounge.com Layer 01
100
AcDbLine
 10
1.024224822613177
 20
0.6447989025418793
 30
0.0
 11
1.002686196163267
 21
0.7284952784120833
 31
0.0
  0
LINE
  5
46
330
2D
100
AcDbEntity
  8
www.archlounge.com Layer 01
100
AcDbLine
 10
1.031065284721989
 20
0.6465592434960854
 30
0.0
 11
1.009526658272079
 21
0.7302556193662895
 31
0.0
  0
LINE
  5
47
330
2D
100
AcDbEntity
  8
www.archlounge.com Layer 01
100
AcDbLine
 10
0.2221186915994622
 20
0.5684776070247608
 30
0.0
 11
0.3006981884500419
 21
0.6366448906464939
 31
0.0
  0
LINE
  5
48
330
2D
100
AcDbEntity
  8
www.archlounge.com Layer 01
100
AcDbLine
 10
0.2267472082749009
 20
0.5631421074667742
 30
0.0
 11
0.3053267051254807
 21
0.6313093910903263
 31
0.0
  0
LINE
  5
49
330
2D
100
AcDbEntity
  8
www.archlounge.com Layer 01
100
AcDbLine
 10
0.8126414870966982
 20
0.7757751151311823
 30
0.0
 11
0.8049065321647503
 21
0.7761104438031908
 31
0.0
  0
LINE
  5
4A
330
2D
100
AcDbEntity
  8
www.archlounge.com Layer 01
100
AcDbLine
 10
0.9631827502635132
 20
1.017643315732129
 30
0.0
 11
0.9529381193242443
 21
1.024938331413068
 31
0.0
  0
LINE
  5
4B
330
2D
100
AcDbEntity
  8
www.archlounge.com Layer 01
100
AcDbLine
 10
0.9744637287949444
 20
1.001147357135778
 30
0.0
 11
0.9631827502635132
 21
1.017643315732129
 31
0.0
  0
LINE
  5
4C
330
2D
100
AcDbEntity
  8
www.archlounge.com Layer 01
100
AcDbLine
 10
0.9807920808088965
 20
0.9843764548731996
 30
0.0
 11
0.9744637287949444
 21
1.001147357135778
 31
0.0
  0
LINE
  5
4D
330
2D
100
AcDbEntity
  8
www.archlounge.com Layer 01
100
AcDbLine
 10
0.9805031622636306
 20
0.9556776082135911
 30
0.0
 11
0.9807920808088965
 21
0.9843764548731996
 31
0.0
  0
LINE
  5
4E
330
2D
100
AcDbEntity
  8
www.archlounge.com Layer 01
100
AcDbLine
 10
0.9719736531296803
 20
0.9160872935535735
 30
0.0
 11
0.9805031622636306
 21
0.9556776082135911
 31
0.0
  0
LINE
  5
4F
330
2D
100
AcDbEntity
  8
www.archlounge.com Layer 01
100
AcDbLine
 10
0.9576433631700638
 20
0.8912468754078872
 30
0.0
 11
0.9719736531296803
 21
0.9160872935535735
 31
0.0
  0
LINE
  5
50
330
2D
100
AcDbEntity
  8
www.archlounge.com Layer 01
100
AcDbLine
 10
0.9339808183467539
 20
0.8676026520552113
 30
0.0
 11
0.9576433631700638
 21
0.8912468754078872
 31
0.0
  0
LINE
  5
51
330
2D
100
AcDbEntity
  8
www.archlounge.com Layer 01
100
AcDbLine
 10
0.8836291215629898
 20
0.8307616638267063
 30
0.0
 11
0.9339808183467539
 21
0.8676026520552113
 31
0.0
  0
LINE
  5
52
330
2D
100
AcDbEntity
  8
www.archlounge.com Layer 01
100
AcDbLine
 10
0.8706972613945254
 20
0.8230635518175404
 30
0.0
 11
0.8836291215629898
 21
0.8307616638267063
 31
0.0
  0
LINE
  5
53
330
2D
100
AcDbEntity
  8
www.archlounge.com Layer 01
100
AcDbLine
 10
0.8401560706770396
 20
0.8024435885436105
 30
0.0
 11
0.8706972613945254
 21
0.8230635518175404
 31
0.0
  0
LINE
  5
54
330
2D
100
AcDbEntity
  8
www.archlounge.com Layer 01
100
AcDbLine
 10
0.8126414870966982
 20
0.7757751151311823
 30
0.0
 11
0.8401560706770396
 21
0.8024435885436105
 31
0.0
  0
LINE
  5
55
330
2D
100
AcDbEntity
  8
www.archlounge.com Layer 01
100
AcDbLine
 10
0.935362689091562
 20
0.8856048847501369
 30
0.0
 11
0.9125328442569298
 21
0.8741988073925313
 31
0.0
  0
LINE
  5
56
330
2D
100
AcDbEntity
  8
www.archlounge.com Layer 01
100
AcDbLine
 10
0.953522313517169
 20
0.9018259197218867
 30
0.0
 11
0.935362689091562
 21
0.8856048847501369
 31
0.0
  0
LINE
  5
57
330
2D
100
AcDbEntity
  8
www.archlounge.com Layer 01
100
AcDbLine
 10
0.9829835784839815
 20
0.9395863156332779
 30
0.0
 11
0.953522313517169
 21
0.9018259197218867
 31
0.0
  0
LINE
  5
58
330
2D
100
AcDbEntity
  8
www.archlounge.com Layer 01
100
AcDbLine
 10
0.9895870866384939
 20
0.9582817433929449
 30
0.0
 11
0.9829835784839815
 21
0.9395863156332779
 31
0.0
  0
LINE
  5
59
330
2D
100
AcDbEntity
  8
www.archlounge.com Layer 01
100
AcDbLine
 10
0.9893119305015716
 20
0.9841254258881235
 30
0.0
 11
0.9895870866384939
 21
0.9582817433929449
 31
0.0
  0
LINE
  5
5A
330
2D
100
AcDbEntity
  8
www.archlounge.com Layer 01
100
AcDbLine
 10
0.9884864988816843
 20
0.9940229970397922
 30
0.0
 11
0.9893119305015716
 21
0.9841254258881235
 31
0.0
  0
LINE
  5
5B
330
2D
100
AcDbEntity
  8
www.archlounge.com Layer 01
100
AcDbLine
 10
0.9772055203502532
 20
1.006944838287381
 30
0.0
 11
0.9884864988816843
 21
0.9940229970397922
 31
0.0
  0
LINE
  5
5C
330
2D
100
AcDbEntity
  8
www.archlounge.com Layer 01
100
AcDbLine
 10
0.959620905588963
 20
1.013606622298539
 30
0.0
 11
0.9772055203502532
 21
1.006944838287381
 31
0.0
  0
LINE
  5
5D
330
2D
100
AcDbEntity
  8
www.archlounge.com Layer 01
100
AcDbLine
 10
0.9756063397326215
 20
1.014151582297927
 30
0.0
 11
0.959620905588963
 21
1.013606622298539
 31
0.0
  0
LINE
  5
5E
330
2D
100
AcDbEntity
  8
www.archlounge.com Layer 01
100
AcDbLine
 10
0.9951868958523846
 20
1.004648397960409
 30
0.0
 11
0.9756063397326215
 21
1.014151582297927
 31
0.0
  0
LINE
  5
5F
330
2D
100
AcDbEntity
  8
www.archlounge.com Layer 01
100
AcDbLine
 10
1.005256892985926
 20
0.965517621832987
 30
0.0
 11
0.9951868958523846
 21
1.004648397960409
 31
0.0
  0
LINE
  5
60
330
2D
100
AcDbEntity
  8
www.archlounge.com Layer 01
100
AcDbLine
 10
1.006901187804032
 20
0.8794871051995869
 30
0.0
 11
1.005256892985926
 21
0.965517621832987
 31
0.0
  0
LINE
  5
61
330
2D
100
AcDbEntity
  8
www.archlounge.com Layer 01
100
AcDbLine
 10
1.006106427215854
 20
0.7293754488891864
 30
0.0
 11
1.006901187804032
 21
0.8794871051995869
 31
0.0
  0
LINE
  5
62
330
2D
100
AcDbEntity
  8
www.archlounge.com Layer 01
100
AcDbLine
 10
0.3282791583405924
 20
0.6554372136797611
 30
0.0
 11
0.3731977011884737
 21
0.6751996742896154
 31
0.0
  0
LINE
  5
63
330
2D
100
AcDbEntity
  8
www.archlounge.com Layer 01
100
AcDbLine
 10
0.3030124467877613
 20
0.6339771408675006
 30
0.0
 11
0.3282791583405924
 21
0.6554372136797611
 31
0.0
  0
LINE
  5
64
330
2D
100
AcDbEntity
  8
www.archlounge.com Layer 01
100
AcDbLine
 10
0.4828373749587627
 20
0.7071357207842084
 30
0.0
 11
0.4901425797979755
 21
0.6905266166177171
 31
0.0
  0
LINE
  5
65
330
2D
100
AcDbEntity
  8
www.archlounge.com Layer 01
100
AcDbLine
 10
0.5058120888315898
 20
0.6875404906713812
 30
0.0
 11
0.5327079543167202
 21
0.7292357444130176
 31
0.0
  0
LINE
  5
66
330
2D
100
AcDbEntity
  8
www.archlounge.com Layer 01
100
AcDbLine
 10
0.4994005000116886
 20
0.6679072909173556
 30
0.0
 11
0.487396259301022
 21
0.6583818988856365
 31
0.0
  0
LINE
  5
67
330
2D
100
AcDbEntity
  8
www.archlounge.com Layer 01
100
AcDbLine
 10
0.4985732101013128
 20
0.6739005879026081
 30
0.0
 11
0.4994005000116886
 21
0.6679072909173556
 31
0.0
  0
LINE
  5
68
330
2D
100
AcDbEntity
  8
www.archlounge.com Layer 01
100
AcDbLine
 10
0.503537023170793
 20
0.6774138916389348
 30
0.0
 11
0.4985732101013128
 21
0.6739005879026081
 31
0.0
  0
LINE
  5
69
330
2D
100
AcDbEntity
  8
www.archlounge.com Layer 01
100
AcDbLine
 10
0.5072598645747349
 20
0.6832005225187459
 30
0.0
 11
0.503537023170793
 21
0.6774138916389348
 31
0.0
  0
LINE
  5
6A
330
2D
100
AcDbEntity
  8
www.archlounge.com Layer 01
100
AcDbLine
 10
0.5058120888315898
 20
0.6875404906713812
 30
0.0
 11
0.5072598645747349
 21
0.6832005225187459
 31
0.0
  0
LINE
  5
6B
330
2D
100
AcDbEntity
  8
www.archlounge.com Layer 01
100
AcDbLine
 10
0.5018824065482477
 20
0.6925004571348837
 30
0.0
 11
0.5058120888315898
 21
0.6875404906713812
 31
0.0
  0
LINE
  5
6C
330
2D
100
AcDbEntity
  8
www.archlounge.com Layer 01
100
AcDbLine
 10
0.4929889111954254
 20
0.6927071132213314
 30
0.0
 11
0.5018824065482477
 21
0.6925004571348837
 31
0.0
  0
LINE
  5
6D
330
2D
100
AcDbEntity
  8
www.archlounge.com Layer 01
100
AcDbLine
 10
0.4719371295286692
 20
0.6765799193017302
 30
0.0
 11
0.4929889111954254
 21
0.6927071132213314
 31
0.0
  0
LINE
  5
6E
330
2D
100
AcDbEntity
  8
www.archlounge.com Layer 01
100
AcDbLine
 10
0.465346160603076
 20
0.6843386087512045
 30
0.0
 11
0.4230795654475515
 21
0.6519593030716351
 31
0.0
  0
LINE
  5
6F
330
2D
100
AcDbEntity
  8
www.archlounge.com Layer 01
100
AcDbLine
 10
0.4897388489371224
 20
0.6556242731530802
 30
0.0
 11
0.465346160603076
 21
0.6843386087512045
 31
0.0
  0
LINE
  5
70
330
2D
100
AcDbEntity
  8
www.archlounge.com Layer 01
100
AcDbLine
 10
0.4401728947086668
 20
0.6166344811936142
 30
0.0
 11
0.4897388489371224
 21
0.6556242731530802
 31
0.0
  0
LINE
  5
71
330
2D
100
AcDbEntity
  8
www.archlounge.com Layer 01
100
AcDbLine
 10
0.3934674926058506
 20
0.5897392987062631
 30
0.0
 11
0.4167955494049238
 21
0.6079210890875402
 31
0.0
  0
LINE
  5
72
330
2D
100
AcDbEntity
  8
www.archlounge.com Layer 01
100
AcDbLine
 10
0.3708508027302741
 20
0.6007109499842045
 30
0.0
 11
0.4068397264345549
 21
0.6332058604803024
 31
0.0
  0
LINE
  5
73
330
2D
100
AcDbEntity
  8
www.archlounge.com Layer 01
100
AcDbLine
 10
0.0111832990623952
 20
0.3997578202961449
 30
0.0
 11
0.0414895022731798
 21
0.4004233744781232
 31
0.0
  0
LINE
  5
74
330
2D
100
AcDbEntity
  8
www.archlounge.com Layer 01
100
AcDbLine
 10
-0.0067878466252296
 20
0.3951729946893465
 30
0.0
 11
0.0111832990623952
 21
0.3997578202961449
 31
0.0
  0
LINE
  5
75
330
2D
100
AcDbEntity
  8
www.archlounge.com Layer 01
100
AcDbLine
 10
-0.0217000766424462
 20
0.384857132065008
 30
0.0
 11
-0.0067878466252296
 21
0.3951729946893465
 31
0.0
  0
LINE
  5
76
330
2D
100
AcDbEntity
  8
www.archlounge.com Layer 01
100
AcDbLine
 10
-0.0343181245007145
 20
0.3718667928460491
 30
0.0
 11
-0.0217000766424462
 21
0.384857132065008
 31
0.0
  0
LINE
  5
77
330
2D
100
AcDbEntity
  8
www.archlounge.com Layer 01
100
AcDbLine
 10
-0.035847591538186
 20
0.3581123160256538
 30
0.0
 11
-0.0343181245007145
 21
0.3718667928460491
 31
0.0
  0
LINE
  5
78
330
2D
100
AcDbEntity
  8
www.archlounge.com Layer 01
100
AcDbLine
 10
-0.0354652247806371
 20
0.3435937016038224
 30
0.0
 11
-0.035847591538186
 21
0.3581123160256538
 31
0.0
  0
LINE
  5
79
330
2D
100
AcDbEntity
  8
www.archlounge.com Layer 01
100
AcDbLine
 10
-0.0301121085503837
 20
0.3302212985927326
 30
0.0
 11
-0.0354652247806371
 21
0.3435937016038224
 31
0.0
  0
LINE
  5
7A
330
2D
100
AcDbEntity
  8
www.archlounge.com Layer 01
100
AcDbLine
 10
-0.0140527782568825
 20
0.3157026841709012
 30
0.0
 11
-0.0301121085503837
 21
0.3302212985927326
 31
0.0
  0
LINE
  5
7B
330
2D
100
AcDbEntity
  8
www.archlounge.com Layer 01
100
AcDbLine
 10
0.0142874205084809
 20
0.3089460062328726
 30
0.0
 11
-0.0140527782568825
 21
0.3157026841709012
 31
0.0
  0
ARC
  5
7C
330
2D
100
AcDbEntity
  8
www.archlounge.com Layer 01
100
AcDbCircle
 10
0.0559466020786204
 20
0.3973623991878412
 30
0.0
 40
0.06425055185008
100
AcDbArc
 50
48.82713250236565
 51
226.7703624860761
  0
LINE
  5
7D
330
2D
100
AcDbEntity
  8
www.archlounge.com Layer 01
100
AcDbLine
 10
1.091439298048499
 20
0.3734819021301519
 30
0.0
 11
1.103850896633957
 21
0.383485025511618
 31
0.0
  0
LINE
  5
7E
330
2D
100
AcDbEntity
  8
www.archlounge.com Layer 01
100
AcDbLine
 10
1.062265313888929
 20
0.3718362573381455
 30
0.0
 11
1.091439298048499
 21
0.3734819021301519
 31
0.0
  0
LINE
  5
7F
330
2D
100
AcDbEntity
  8
www.archlounge.com Layer 01
100
AcDbLine
 10
1.057666641579999
 20
0.375599696777499
 30
0.0
 11
1.062265313888929
 21
0.3718362573381455
 31
0.0
  0
ARC
  5
80
330
2D
100
AcDbEntity
  8
www.archlounge.com Layer 01
100
AcDbCircle
 10
1.090833990809187
 20
0.3996360419278062
 30
0.0
 40
0.02074355727844
100
AcDbArc
 50
225.4996853559369
 51
148.9036222118597
  0
LINE
  5
81
330
2D
100
AcDbEntity
  8
www.archlounge.com Layer 01
100
AcDbLine
 10
1.077451481483876
 20
0.3964008419188758
 30
0.0
 11
1.075823651044629
 21
0.3801354291572352
 31
0.0
  0
LINE
  5
82
330
2D
100
AcDbEntity
  8
www.archlounge.com Layer 01
100
AcDbLine
 10
0.996656431518204
 20
0.6536943403225451
 30
0.0
 11
1.077451481483876
 21
0.3964008419188758
 31
0.0
  0
LINE
  5
83
330
2D
100
AcDbEntity
  8
www.archlounge.com Layer 01
100
AcDbLine
 10
1.057666641579999
 20
0.375599696777499
 30
0.0
 11
1.075823651044629
 21
0.3801354291572352
 31
0.0
  0
LINE
  5
84
330
2D
100
AcDbEntity
  8
www.archlounge.com Layer 01
100
AcDbLine
 10
1.049853083059133
 20
0.3841605604557117
 30
0.0
 11
1.057666641579999
 21
0.375599696777499
 31
0.0
  0
LINE
  5
85
330
2D
100
AcDbEntity
  8
www.archlounge.com Layer 01
100
AcDbLine
 10
0.9629597198181727
 20
0.640689287436544
 30
0.0
 11
1.049853083059133
 21
0.3841605604557117
 31
0.0
  0
LINE
  5
86
330
2D
100
AcDbEntity
  8
www.archlounge.com Layer 01
100
AcDbLine
 10
0.9986663302588567
 20
0.6544700492304401
 30
0.0
 11
0.9888441017283184
 21
0.6715378002354555
 31
0.0
  0
LINE
  5
87
330
2D
100
AcDbEntity
  8
www.archlounge.com Layer 01
100
AcDbLine
 10
0.9607948189186572
 20
0.6398537563345599
 30
0.0
 11
0.9986663302588567
 21
0.6544700492304401
 31
0.0
  0
LINE
  5
88
330
2D
100
AcDbEntity
  8
www.archlounge.com Layer 01
100
AcDbLine
 10
0.9601899773806508
 20
0.6613264172701748
 30
0.0
 11
0.9607948189186572
 21
0.6398537563345599
 31
0.0
  0
LINE
  5
89
330
2D
100
AcDbEntity
  8
www.archlounge.com Layer 01
100
AcDbLine
 10
0.9601899773806508
 20
0.6613264172701748
 30
0.0
 11
0.9888441017283184
 21
0.6715378002354555
 31
0.0
  0
LINE
  5
8A
330
2D
100
AcDbEntity
  8
www.archlounge.com Layer 01
100
AcDbLine
 10
0.9562503231099981
 20
0.7600534209796024
 30
0.0
 11
0.9843788564721762
 21
0.6699465343917837
 31
0.0
  0
LINE
  5
8B
330
2D
100
AcDbEntity
  8
www.archlounge.com Layer 01
100
AcDbLine
 10
0.9313155766649288
 20
0.7537191687279119
 30
0.0
 11
0.9626963130613148
 21
0.6622195924774133
 31
0.0
  0
LINE
  5
8C
330
2D
100
AcDbEntity
  8
www.archlounge.com Layer 01
100
AcDbLine
 10
0.8866401863815553
 20
0.8402697286855982
 30
0.0
 11
0.8839258644584333
 21
0.8440727267734473
 31
0.0
  0
LINE
  5
8D
330
2D
100
AcDbEntity
  8
www.archlounge.com Layer 01
100
AcDbLine
 10
0.8906952222932886
 20
0.8290424061196972
 30
0.0
 11
0.8866401863815553
 21
0.8402697286855982
 31
0.0
  0
LINE
  5
8E
330
2D
100
AcDbEntity
  8
www.archlounge.com Layer 01
100
AcDbLine
 10
0.9082704692336847
 20
0.8368399473274621
 30
0.0
 11
0.9236938067515438
 21
0.8402659228740958
 31
0.0
  0
LINE
  5
8F
330
2D
100
AcDbEntity
  8
www.archlounge.com Layer 01
100
AcDbLine
 10
0.8906952222932886
 20
0.8290424061196972
 30
0.0
 11
0.9082704692336847
 21
0.8368399473274621
 31
0.0
  0
LINE
  5
90
330
2D
100
AcDbEntity
  8
www.archlounge.com Layer 01
100
AcDbLine
 10
0.8911922042061632
 20
0.824738639546922
 30
0.0
 11
0.8906952222932886
 21
0.8290424061196972
 31
0.0
  0
LINE
  5
91
330
2D
100
AcDbEntity
  8
www.archlounge.com Layer 01
100
AcDbLine
 10
0.8936466021441447
 20
0.8203357430138566
 30
0.0
 11
0.8911922042061632
 21
0.824738639546922
 31
0.0
  0
LINE
  5
92
330
2D
100
AcDbEntity
  8
www.archlounge.com Layer 01
100
AcDbLine
 10
0.8938828300560999
 20
0.809242210121738
 30
0.0
 11
0.8936466021441447
 21
0.8203357430138566
 31
0.0
  0
LINE
  5
93
330
2D
100
AcDbEntity
  8
www.archlounge.com Layer 01
100
AcDbLine
 10
0.8990795703248295
 20
0.8023972645059984
 30
0.0
 11
0.8938828300560999
 21
0.809242210121738
 31
0.0
  0
LINE
  5
94
330
2D
100
AcDbEntity
  8
www.archlounge.com Layer 01
100
AcDbLine
 10
0.9040401009333436
 20
0.7995648763026111
 30
0.0
 11
0.8990795703248295
 21
0.8023972645059984
 31
0.0
  0
LINE
  5
95
330
2D
100
AcDbEntity
  8
www.archlounge.com Layer 01
100
AcDbLine
 10
0.9104179077548906
 20
0.8014531351054756
 30
0.0
 11
0.9040401009333436
 21
0.7995648763026111
 31
0.0
  0
LINE
  5
96
330
2D
100
AcDbEntity
  8
www.archlounge.com Layer 01
100
AcDbLine
 10
0.9146257390566461
 20
0.7964035387976765
 30
0.0
 11
0.9104179077548906
 21
0.8014531351054756
 31
0.0
  0
LINE
  5
97
330
2D
100
AcDbEntity
  8
www.archlounge.com Layer 01
100
AcDbLine
 10
0.9304565491875109
 20
0.8004423195397976
 30
0.0
 11
0.9459505452177836
 21
0.8044810903465986
 31
0.0
  0
LINE
  5
98
330
2D
100
AcDbEntity
  8
www.archlounge.com Layer 01
100
AcDbLine
 10
0.9146257390566461
 20
0.7964035387976765
 30
0.0
 11
0.9304565491875109
 21
0.8004423195397976
 31
0.0
  0
LINE
  5
99
330
2D
100
AcDbEntity
  8
www.archlounge.com Layer 01
100
AcDbLine
 10
0.9136152602623042
 20
0.787989406455381
 30
0.0
 11
0.9146257390566461
 21
0.7964035387976765
 31
0.0
  0
LINE
  5
9A
330
2D
100
AcDbEntity
  8
www.archlounge.com Layer 01
100
AcDbLine
 10
0.9220359047249075
 20
0.7654395564186416
 30
0.0
 11
0.9136152602623042
 21
0.787989406455381
 31
0.0
  0
LINE
  5
9B
330
2D
100
AcDbEntity
  8
www.archlounge.com Layer 01
100
AcDbLine
 10
0.9270882987002551
 20
0.7576985558553134
 30
0.0
 11
0.9220359047249075
 21
0.7654395564186416
 31
0.0
  0
LINE
  5
9C
330
2D
100
AcDbEntity
  8
www.archlounge.com Layer 01
100
AcDbLine
 10
0.9536713200213853
 20
0.7692507039282646
 30
0.0
 11
0.9270882987002551
 21
0.7576985558553134
 31
0.0
  0
LINE
  5
9D
330
2D
100
AcDbEntity
  8
www.archlounge.com Layer 01
100
AcDbLine
 10
0.9567027381599473
 20
0.7722797820333654
 30
0.0
 11
0.9536713200213853
 21
0.7692507039282646
 31
0.0
  0
LINE
  5
9E
330
2D
100
AcDbEntity
  8
www.archlounge.com Layer 01
100
AcDbLine
 10
0.9459243220044299
 20
0.8035803352704533
 30
0.0
 11
0.9567027381599473
 21
0.7722797820333654
 31
0.0
  0
LINE
  5
9F
330
2D
100
AcDbEntity
  8
www.archlounge.com Layer 01
100
AcDbLine
 10
0.9395246168860467
 20
0.8113213258966425
 30
0.0
 11
0.9459243220044299
 21
0.8035803352704533
 31
0.0
  0
LINE
  5
A0
330
2D
100
AcDbEntity
  8
www.archlounge.com Layer 01
100
AcDbLine
 10
0.933461762360821
 20
0.8180526238211314
 30
0.0
 11
0.9395246168860467
 21
0.8113213258966425
 31
0.0
  0
LINE
  5
A1
330
2D
100
AcDbEntity
  8
www.archlounge.com Layer 01
100
AcDbLine
 10
0.9280725360331416
 20
0.8308420978282811
 30
0.0
 11
0.933461762360821
 21
0.8180526238211314
 31
0.0
  0
LINE
  5
A2
330
2D
100
AcDbEntity
  8
www.archlounge.com Layer 01
100
AcDbLine
 10
0.9284093683818355
 20
0.8365637030528887
 30
0.0
 11
0.9280725360331416
 21
0.8308420978282811
 31
0.0
  0
LINE
  5
A3
330
2D
100
AcDbEntity
  8
www.archlounge.com Layer 01
100
AcDbLine
 10
0.9236938067515438
 20
0.8402659228740958
 30
0.0
 11
0.9284093683818355
 21
0.8365637030528887
 31
0.0
  0
LINE
  5
A4
330
2D
100
AcDbEntity
  8
www.archlounge.com Layer 01
100
AcDbLine
 10
0.9086073563303216
 20
0.8861335422843694
 30
0.0
 11
0.9236938067515438
 21
0.8402659228740958
 31
0.0
  0
LINE
  5
A5
330
2D
100
AcDbEntity
  8
www.archlounge.com Layer 01
100
AcDbLine
 10
0.8876943979048519
 20
0.9477856204939598
 30
0.0
 11
0.8547500026143097
 21
0.9365212285320012
 31
0.0
  0
LINE
  5
A6
330
2D
100
AcDbEntity
  8
www.archlounge.com Layer 01
100
AcDbLine
 10
0.8974528368744358
 20
1.024297683177792
 30
0.0
 11
0.9251512115988589
 21
1.000139723793836
 31
0.0
  0
LINE
  5
A7
330
2D
100
AcDbEntity
  8
www.archlounge.com Layer 01
100
AcDbLine
 10
0.8836259766576404
 20
1.049799163552961
 30
0.0
 11
0.9107130392221733
 21
1.044779166271837
 31
0.0
  0
LINE
  5
A8
330
2D
100
AcDbEntity
  8
www.archlounge.com Layer 01
100
AcDbLine
 10
0.9304596514484728
 20
1.055695826165901
 30
0.0
 11
0.9304596514484728
 21
1.055695826165901
 31
0.0
  0
LINE
  5
A9
330
2D
100
AcDbEntity
  8
www.archlounge.com Layer 01
100
AcDbLine
 10
0.9178770526195876
 20
1.051042819257418
 30
0.0
 11
0.9304596514484728
 21
1.055695826165901
 31
0.0
  0
LINE
  5
AA
330
2D
100
AcDbEntity
  8
www.archlounge.com Layer 01
100
AcDbLine
 10
0.9106789354882494
 20
1.044749348635377
 30
0.0
 11
0.9178770526195876
 21
1.051042819257418
 31
0.0
  0
LINE
  5
AB
330
2D
100
AcDbEntity
  8
www.archlounge.com Layer 01
100
AcDbLine
 10
0.8970848176977597
 20
1.035694732014235
 30
0.0
 11
0.9106789354882494
 21
1.044749348635377
 31
0.0
  0
LINE
  5
AC
330
2D
100
AcDbEntity
  8
www.archlounge.com Layer 01
100
AcDbLine
 10
0.9328897605191741
 20
1.064599308350807
 30
0.0
 11
0.9283428522976464
 21
1.067857192234441
 31
0.0
  0
LINE
  5
AD
330
2D
100
AcDbEntity
  8
www.archlounge.com Layer 01
100
AcDbLine
 10
0.9304596514484728
 20
1.055695826165901
 30
0.0
 11
0.9328897605191741
 21
1.064599308350807
 31
0.0
  0
LINE
  5
AE
330
2D
100
AcDbEntity
  8
www.archlounge.com Layer 01
100
AcDbLine
 10
0.9357248786509444
 20
1.047601749645764
 30
0.0
 11
0.9304596514484728
 21
1.055695826165901
 31
0.0
  0
LINE
  5
AF
330
2D
100
AcDbEntity
  8
www.archlounge.com Layer 01
100
AcDbLine
 10
0.9462553330558876
 20
1.036270040529416
 30
0.0
 11
0.9357248786509444
 21
1.047601749645764
 31
0.0
  0
LINE
  5
B0
330
2D
100
AcDbEntity
  8
www.archlounge.com Layer 01
100
AcDbLine
 10
0.959620905588963
 20
1.013606622298539
 30
0.0
 11
0.9462553330558876
 21
1.036270040529416
 31
0.0
  0
LINE
  5
B1
330
2D
100
AcDbEntity
  8
www.archlounge.com Layer 01
100
AcDbLine
 10
0.9547607056920242
 20
1.005512545778401
 30
0.0
 11
0.959620905588963
 21
1.013606622298539
 31
0.0
  0
LINE
  5
B2
330
2D
100
AcDbEntity
  8
www.archlounge.com Layer 01
100
AcDbLine
 10
0.9486854421302268
 20
0.9982278848583518
 30
0.0
 11
0.9547607056920242
 21
1.005512545778401
 31
0.0
  0
LINE
  5
B3
330
2D
100
AcDbEntity
  8
www.archlounge.com Layer 01
100
AcDbLine
 10
0.938516802383674
 20
0.9989256103290244
 30
0.0
 11
0.9486854421302268
 21
0.9982278848583518
 31
0.0
  0
LINE
  5
B4
330
2D
100
AcDbEntity
  8
www.archlounge.com Layer 01
100
AcDbLine
 10
0.9251512115988589
 20
1.000139723793836
 30
0.0
 11
0.938516802383674
 21
0.9989256103290244
 31
0.0
  0
LINE
  5
B5
330
2D
100
AcDbEntity
  8
www.archlounge.com Layer 01
100
AcDbLine
 10
0.9121906663676782
 20
0.9944738642680022
 30
0.0
 11
0.9251512115988589
 21
1.000139723793836
 31
0.0
  0
LINE
  5
B6
330
2D
100
AcDbEntity
  8
www.archlounge.com Layer 01
100
AcDbLine
 10
0.8813044284033821
 20
0.9767302472810115
 30
0.0
 11
0.9121906663676782
 21
0.9944738642680022
 31
0.0
  0
LINE
  5
B7
330
2D
100
AcDbEntity
  8
www.archlounge.com Layer 01
100
AcDbLine
 10
0.879563385828078
 20
0.971985602793211
 30
0.0
 11
0.8813044284033821
 21
0.9767302472810115
 31
0.0
  0
LINE
  5
B8
330
2D
100
AcDbEntity
  8
www.archlounge.com Layer 01
100
AcDbLine
 10
0.8801964839258289
 20
0.9604403012071998
 30
0.0
 11
0.879563385828078
 21
0.971985602793211
 31
0.0
  0
LINE
  5
B9
330
2D
100
AcDbEntity
  8
www.archlounge.com Layer 01
100
AcDbLine
 10
0.8851030899713805
 20
0.9518999411284312
 30
0.0
 11
0.8801964839258289
 21
0.9604403012071998
 31
0.0
  0
LINE
  5
BA
330
2D
100
AcDbEntity
  8
www.archlounge.com Layer 01
100
AcDbLine
 10
0.8902857058383233
 20
0.9436712998613074
 30
0.0
 11
0.8851030899713805
 21
0.9518999411284312
 31
0.0
  0
LINE
  5
BB
330
2D
100
AcDbEntity
  8
www.archlounge.com Layer 01
100
AcDbLine
 10
0.9086073563303216
 20
0.8861335422843694
 30
0.0
 11
0.8902857058383233
 21
0.9436712998613074
 31
0.0
  0
LINE
  5
BC
330
2D
100
AcDbEntity
  8
www.archlounge.com Layer 01
100
AcDbLine
 10
0.9283428522976464
 20
1.067857192234441
 30
0.0
 11
0.8748435858797165
 21
1.079347385333676
 31
0.0
  0
LINE
  5
BD
330
2D
100
AcDbEntity
  8
www.archlounge.com Layer 01
100
AcDbLine
 10
0.8836259766576404
 20
1.049799163552961
 30
0.0
 11
0.8706880233585252
 21
1.050805113500246
 31
0.0
  0
CIRCLE
  5
BE
330
2D
100
AcDbEntity
  8
www.archlounge.com Layer 01
100
AcDbCircle
 10
0.8718084679276216
 20
1.065215631189857
 30
0.0
 40
0.014454010383304
  0
LINE
  5
BF
330
2D
100
AcDbEntity
  8
www.archlounge.com Layer 01
100
AcDbLine
 10
0.8878934260756068
 20
1.04619105558595
 30
0.0
 11
0.8836259766576404
 21
1.049799163552961
 31
0.0
  0
LINE
  5
C0
330
2D
100
AcDbEntity
  8
www.archlounge.com Layer 01
100
AcDbLine
 10
0.8878934260756068
 20
1.040614886018374
 30
0.0
 11
0.8878934260756068
 21
1.04619105558595
 31
0.0
  0
LINE
  5
C1
330
2D
100
AcDbEntity
  8
www.archlounge.com Layer 01
100
AcDbLine
 10
0.8951152298686793
 20
1.037334783348342
 30
0.0
 11
0.8878934260756068
 21
1.040614886018374
 31
0.0
  0
LINE
  5
C2
330
2D
100
AcDbEntity
  8
www.archlounge.com Layer 01
100
AcDbLine
 10
0.8990544055304781
 20
1.034054680680128
 30
0.0
 11
0.8951152298686793
 21
1.037334783348342
 31
0.0
  0
LINE
  5
C3
330
2D
100
AcDbEntity
  8
www.archlounge.com Layer 01
100
AcDbLine
 10
0.9031486029016377
 20
1.031683262688602
 30
0.0
 11
0.8990544055304781
 21
1.034054680680128
 31
0.0
  0
LINE
  5
C4
330
2D
100
AcDbEntity
  8
www.archlounge.com Layer 01
100
AcDbLine
 10
0.8974528368744358
 20
1.024297683177792
 30
0.0
 11
0.9031486029016377
 21
1.031683262688602
 31
0.0
  0
LINE
  5
C5
330
2D
100
AcDbEntity
  8
www.archlounge.com Layer 01
100
AcDbLine
 10
0.8904103436616424
 20
1.030292193898276
 30
0.0
 11
0.8974528368744358
 21
1.024297683177792
 31
0.0
  0
LINE
  5
C6
330
2D
100
AcDbEntity
  8
www.archlounge.com Layer 01
100
AcDbLine
 10
0.883628677445813
 20
1.03628671455408
 30
0.0
 11
0.8904103436616424
 21
1.030292193898276
 31
0.0
  0
LINE
  5
C7
330
2D
100
AcDbEntity
  8
www.archlounge.com Layer 01
100
AcDbLine
 10
0.8731953602473367
 20
1.044105639852205
 30
0.0
 11
0.883628677445813
 21
1.03628671455408
 31
0.0
  0
LINE
  5
C8
330
2D
100
AcDbEntity
  8
www.archlounge.com Layer 01
100
AcDbLine
 10
0.8677178655270836
 20
1.038111129131721
 30
0.0
 11
0.8731953602473367
 21
1.044105639852205
 31
0.0
  0
LINE
  5
C9
330
2D
100
AcDbEntity
  8
www.archlounge.com Layer 01
100
AcDbLine
 10
0.8708478625121642
 20
1.031334717934441
 30
0.0
 11
0.8677178655270836
 21
1.038111129131721
 31
0.0
  0
LINE
  5
CA
330
2D
100
AcDbEntity
  8
www.archlounge.com Layer 01
100
AcDbLine
 10
0.8721520157560007
 20
1.02403704968492
 30
0.0
 11
0.8708478625121642
 21
1.031334717934441
 31
0.0
  0
LINE
  5
CB
330
2D
100
AcDbEntity
  8
www.archlounge.com Layer 01
100
AcDbLine
 10
0.8747603587398771
 20
1.020909477578243
 30
0.0
 11
0.8721520157560007
 21
1.02403704968492
 31
0.0
  0
LINE
  5
CC
330
2D
100
AcDbEntity
  8
www.archlounge.com Layer 01
100
AcDbLine
 10
0.8815420067076047
 20
1.019606329988164
 30
0.0
 11
0.8747603587398771
 21
1.020909477578243
 31
0.0
  0
LINE
  5
CD
330
2D
100
AcDbEntity
  8
www.archlounge.com Layer 01
100
AcDbLine
 10
0.8858333252755983
 20
1.013870167285858
 30
0.0
 11
0.8815420067076047
 21
1.019606329988164
 31
0.0
  0
LINE
  5
CE
330
2D
100
AcDbEntity
  8
www.archlounge.com Layer 01
100
AcDbLine
 10
0.8709572814404964
 20
1.006750173624823
 30
0.0
 11
0.8858333252755983
 21
1.013870167285858
 31
0.0
  0
LINE
  5
CF
330
2D
100
AcDbEntity
  8
www.archlounge.com Layer 01
100
AcDbLine
 10
0.8659607277004397
 20
1.008622430301329
 30
0.0
 11
0.8709572814404964
 21
1.006750173624823
 31
0.0
  0
LINE
  5
D0
330
2D
100
AcDbEntity
  8
www.archlounge.com Layer 01
100
AcDbLine
 10
0.8532325051819498
 20
1.013391817532465
 30
0.0
 11
0.8659607277004397
 21
1.008622430301329
 31
0.0
  0
LINE
  5
D1
330
2D
100
AcDbEntity
  8
www.archlounge.com Layer 01
100
AcDbLine
 10
0.8373222224727214
 20
1.006502702643047
 30
0.0
 11
0.8532325051819498
 21
1.013391817532465
 31
0.0
  0
LINE
  5
D2
330
2D
100
AcDbEntity
  8
www.archlounge.com Layer 01
100
AcDbLine
 10
0.8314884606588748
 20
0.9911346771223179
 30
0.0
 11
0.8373222224727214
 21
1.006502702643047
 31
0.0
  0
LINE
  5
D3
330
2D
100
AcDbEntity
  8
www.archlounge.com Layer 01
100
AcDbLine
 10
0.8373222224727214
 20
0.9842455622347188
 30
0.0
 11
0.8314884606588748
 21
0.9911346771223179
 31
0.0
  0
LINE
  5
D4
330
2D
100
AcDbEntity
  8
www.archlounge.com Layer 01
100
AcDbLine
 10
0.8362615418227505
 20
0.9683476147347391
 30
0.0
 11
0.8373222224727214
 21
0.9842455622347188
 31
0.0
  0
LINE
  5
D5
330
2D
100
AcDbEntity
  8
www.archlounge.com Layer 01
100
AcDbLine
 10
0.849058634496032
 20
0.9564777956820762
 30
0.0
 11
0.8362615418227505
 21
0.9683476147347391
 31
0.0
  0
LINE
  5
D6
330
2D
100
AcDbEntity
  8
www.archlounge.com Layer 01
100
AcDbLine
 10
0.8540327055561647
 20
0.940738738327127
 30
0.0
 11
0.849058634496032
 21
0.9564777956820762
 31
0.0
  0
LINE
  5
D7
330
2D
100
AcDbEntity
  8
www.archlounge.com Layer 01
100
AcDbLine
 10
0.8554672996724548
 20
0.9323037187368754
 30
0.0
 11
0.8540327055561647
 21
0.940738738327127
 31
0.0
  0
LINE
  5
D8
330
2D
100
AcDbEntity
  8
www.archlounge.com Layer 01
100
AcDbLine
 10
0.8559442021614813
 20
0.9250514052400831
 30
0.0
 11
0.8554672996724548
 21
0.9323037187368754
 31
0.0
  0
LINE
  5
D9
330
2D
100
AcDbEntity
  8
www.archlounge.com Layer 01
100
AcDbLine
 10
0.7694611250190065
 20
0.8828985230793477
 30
0.0
 11
0.8559442021614813
 21
0.9250514052400831
 31
0.0
  0
LINE
  5
DA
330
2D
100
AcDbEntity
  8
www.archlounge.com Layer 01
100
AcDbLine
 10
0.6177183529653121
 20
0.8089372881131566
 30
0.0
 11
0.7694611250190065
 21
0.8828985230793477
 31
0.0
  0
LINE
  5
DB
330
2D
100
AcDbEntity
  8
www.archlounge.com Layer 01
100
AcDbLine
 10
0.5027235740162724
 20
0.7546728165307286
 30
0.0
 11
0.6177183529653121
 21
0.8089372881131566
 31
0.0
  0
LINE
  5
DC
330
2D
100
AcDbEntity
  8
www.archlounge.com Layer 01
100
AcDbLine
 10
0.4853467986649776
 20
0.7542035291771754
 30
0.0
 11
0.5027235740162724
 21
0.7546728165307286
 31
0.0
  0
LINE
  5
DD
330
2D
100
AcDbEntity
  8
www.archlounge.com Layer 01
100
AcDbLine
 10
0.4489494885856402
 20
0.7546728165307286
 30
0.0
 11
0.4853467986649776
 21
0.7542035291771754
 31
0.0
  0
LINE
  5
DE
330
2D
100
AcDbEntity
  8
www.archlounge.com Layer 01
100
AcDbLine
 10
0.4177182611565513
 20
0.7567845649027732
 30
0.0
 11
0.4489494885856402
 21
0.7546728165307286
 31
0.0
  0
LINE
  5
DF
330
2D
100
AcDbEntity
  8
www.archlounge.com Layer 01
100
AcDbLine
 10
0.3921227254177211
 20
0.7621812750603567
 30
0.0
 11
0.4177182611565513
 21
0.7567845649027732
 31
0.0
  0
LINE
  5
E0
330
2D
100
AcDbEntity
  8
www.archlounge.com Layer 01
100
AcDbLine
 10
0.3738066772421007
 20
0.7689858174653637
 30
0.0
 11
0.3921227254177211
 21
0.7621812750603567
 31
0.0
  0
LINE
  5
E1
330
2D
100
AcDbEntity
  8
www.archlounge.com Layer 01
100
AcDbLine
 10
0.3648834667983465
 20
0.7955000709644083
 30
0.0
 11
0.3738066772421007
 21
0.7689858174653637
 31
0.0
  0
LINE
  5
E2
330
2D
100
AcDbEntity
  8
www.archlounge.com Layer 01
100
AcDbLine
 10
0.3075431885008584
 20
0.990111768418501
 30
0.0
 11
0.3315835434841574
 21
1.01068898093581
 31
0.0
  0
LINE
  5
E3
330
2D
100
AcDbEntity
  8
www.archlounge.com Layer 01
100
AcDbLine
 10
0.2878967593533161
 20
0.9845597886942414
 30
0.0
 11
0.3075431885008584
 21
0.990111768418501
 31
0.0
  0
LINE
  5
E4
330
2D
100
AcDbEntity
  8
www.archlounge.com Layer 01
100
AcDbLine
 10
0.2215569777981727
 20
0.9809828092948009
 30
0.0
 11
0.189974684126355
 21
1.012550812702102
 31
0.0
  0
LINE
  5
E5
330
2D
100
AcDbEntity
  8
www.archlounge.com Layer 01
100
AcDbLine
 10
0.2479717471796903
 20
0.9782927266405749
 30
0.0
 11
0.2215569777981727
 21
0.9809828092948009
 31
0.0
  0
LINE
  5
E6
330
2D
100
AcDbEntity
  8
www.archlounge.com Layer 01
100
AcDbLine
 10
0.2863066553254612
 20
0.9581761415138316
 30
0.0
 11
0.3132220745865197
 21
0.9706981057315715
 31
0.0
  0
LINE
  5
E7
330
2D
100
AcDbEntity
  8
www.archlounge.com Layer 01
100
AcDbLine
 10
0.2595369327500521
 20
0.99300158164624
 30
0.0
 11
0.2778591306960152
 21
0.9939325049817853
 31
0.0
  0
LINE
  5
E8
330
2D
100
AcDbEntity
  8
www.archlounge.com Layer 01
100
AcDbLine
 10
0.246804549555236
 20
0.99300158164624
 30
0.0
 11
0.2595369327500521
 21
0.99300158164624
 31
0.0
  0
LINE
  5
E9
330
2D
100
AcDbEntity
  8
www.archlounge.com Layer 01
100
AcDbLine
 10
0.2381092821633501
 20
0.9933118894259678
 30
0.0
 11
0.246804549555236
 21
0.99300158164624
 31
0.0
  0
LINE
  5
EA
330
2D
100
AcDbEntity
  8
www.archlounge.com Layer 01
100
AcDbLine
 10
0.2259979894952266
 20
0.9961046395583252
 30
0.0
 11
0.2381092821633501
 21
0.9933118894259678
 31
0.0
  0
LINE
  5
EB
330
2D
100
AcDbEntity
  8
www.archlounge.com Layer 01
100
AcDbLine
 10
0.2179237943819317
 20
1.001379822107992
 30
0.0
 11
0.2259979894952266
 21
0.9961046395583252
 31
0.0
  0
LINE
  5
EC
330
2D
100
AcDbEntity
  8
www.archlounge.com Layer 01
100
AcDbLine
 10
0.2092285269900458
 20
1.007275620215295
 30
0.0
 11
0.2179237943819317
 21
1.001379822107992
 31
0.0
  0
LINE
  5
ED
330
2D
100
AcDbEntity
  8
www.archlounge.com Layer 01
100
AcDbLine
 10
0.1964961437952297
 20
1.013792033878416
 30
0.0
 11
0.2092285269900458
 21
1.007275620215295
 31
0.0
  0
LINE
  5
EE
330
2D
100
AcDbEntity
  8
www.archlounge.com Layer 01
100
AcDbLine
 10
0.1834532244574802
 20
1.011309591523968
 30
0.0
 11
0.1964961437952297
 21
1.013792033878416
 31
0.0
  0
LINE
  5
EF
330
2D
100
AcDbEntity
  8
www.archlounge.com Layer 01
100
AcDbLine
 10
0.1781739458456286
 20
1.007585927993204
 30
0.0
 11
0.1834532244574802
 21
1.011309591523968
 31
0.0
  0
LINE
  5
F0
330
2D
100
AcDbEntity
  8
www.archlounge.com Layer 01
100
AcDbLine
 10
0.1707208412626642
 20
1.00851684139161
 30
0.0
 11
0.1781739458456286
 21
1.007585927993204
 31
0.0
  0
LINE
  5
F1
330
2D
100
AcDbEntity
  8
www.archlounge.com Layer 01
100
AcDbLine
 10
0.1632677549278014
 20
1.014412649436053
 30
0.0
 11
0.1707208412626642
 21
1.00851684139161
 31
0.0
  0
LINE
  5
F2
330
2D
100
AcDbEntity
  8
www.archlounge.com Layer 01
100
AcDbLine
 10
0.1564357408715296
 20
1.016584784010774
 30
0.0
 11
0.1632677549278014
 21
1.014412649436053
 31
0.0
  0
LINE
  5
F3
330
2D
100
AcDbEntity
  8
www.archlounge.com Layer 01
100
AcDbLine
 10
0.1474299190922466
 20
1.01751569740918
 30
0.0
 11
0.1564357408715296
 21
1.016584784010774
 31
0.0
  0
LINE
  5
F4
330
2D
100
AcDbEntity
  8
www.archlounge.com Layer 01
100
AcDbLine
 10
0.1440139120641106
 20
1.021859966560441
 30
0.0
 11
0.1474299190922466
 21
1.01751569740918
 31
0.0
  0
LINE
  5
F5
330
2D
100
AcDbEntity
  8
www.archlounge.com Layer 01
100
AcDbLine
 10
0.1443244664515078
 20
1.029927899244285
 30
0.0
 11
0.1440139120641106
 21
1.021859966560441
 31
0.0
  0
LINE
  5
F6
330
2D
100
AcDbEntity
  8
www.archlounge.com Layer 01
100
AcDbLine
 10
0.1455666475085309
 20
1.036754620685314
 30
0.0
 11
0.1443244664515078
 21
1.029927899244285
 31
0.0
  0
LINE
  5
F7
330
2D
100
AcDbEntity
  8
www.archlounge.com Layer 01
100
AcDbLine
 10
0.1505353717293474
 20
1.0420298032368
 30
0.0
 11
0.1455666475085309
 21
1.036754620685314
 31
0.0
  0
LINE
  5
F8
330
2D
100
AcDbEntity
  8
www.archlounge.com Layer 01
100
AcDbLine
 10
0.1651310265115171
 20
1.04451224558943
 30
0.0
 11
0.1505353717293474
 21
1.0420298032368
 31
0.0
  0
LINE
  5
F9
330
2D
100
AcDbEntity
  8
www.archlounge.com Layer 01
100
AcDbLine
 10
0.1949434083508095
 20
1.043891639970752
 30
0.0
 11
0.1651310265115171
 21
1.04451224558943
 31
0.0
  0
LINE
  5
FA
330
2D
100
AcDbEntity
  8
www.archlounge.com Layer 01
100
AcDbLine
 10
0.2173027038552391
 20
1.043271024413115
 30
0.0
 11
0.1949434083508095
 21
1.043891639970752
 31
0.0
  0
LINE
  5
FB
330
2D
100
AcDbEntity
  8
www.archlounge.com Layer 01
100
AcDbLine
 10
0.2356249018012022
 20
1.041098889836575
 30
0.0
 11
0.2173027038552391
 21
1.043271024413115
 31
0.0
  0
LINE
  5
FC
330
2D
100
AcDbEntity
  8
www.archlounge.com Layer 01
100
AcDbLine
 10
0.2654373018885963
 20
1.040788582058667
 30
0.0
 11
0.2356249018012022
 21
1.041098889836575
 31
0.0
  0
LINE
  5
FD
330
2D
100
AcDbEntity
  8
www.archlounge.com Layer 01
100
AcDbLine
 10
0.2964918647849117
 20
1.040167976438169
 30
0.0
 11
0.2654373018885963
 21
1.040788582058667
 31
0.0
  0
LINE
  5
FE
330
2D
100
AcDbEntity
  8
www.archlounge.com Layer 01
100
AcDbLine
 10
0.3194722508160339
 20
1.0420298032368
 30
0.0
 11
0.2964918647849117
 21
1.040167976438169
 31
0.0
  0
LINE
  5
FF
330
2D
100
AcDbEntity
  8
www.archlounge.com Layer 01
100
AcDbLine
 10
0.3440053722915763
 20
1.0420298032368
 30
0.0
 11
0.3194722508160339
 21
1.0420298032368
 31
0.0
  0
LINE
  5
100
330
2D
100
AcDbEntity
  8
www.archlounge.com Layer 01
100
AcDbLine
 10
0.3716439464078576
 20
1.042340111014709
 30
0.0
 11
0.3440053722915763
 21
1.0420298032368
 31
0.0
  0
LINE
  5
101
330
2D
100
AcDbEntity
  8
www.archlounge.com Layer 01
100
AcDbLine
 10
0.388102872773743
 20
1.041409197616303
 30
0.0
 11
0.3716439464078576
 21
1.042340111014709
 31
0.0
  0
LINE
  5
102
330
2D
100
AcDbEntity
  8
www.archlounge.com Layer 01
100
AcDbLine
 10
0.3983508756100491
 20
1.038306139704218
 30
0.0
 11
0.388102872773743
 21
1.041409197616303
 31
0.0
  0
LINE
  5
103
330
2D
100
AcDbEntity
  8
www.archlounge.com Layer 01
100
AcDbLine
 10
0.406114516332309
 20
1.031479428198508
 30
0.0
 11
0.3983508756100491
 21
1.038306139704218
 31
0.0
  0
LINE
  5
104
330
2D
100
AcDbEntity
  8
www.archlounge.com Layer 01
100
AcDbLine
 10
0.408598896690819
 20
1.027135159047247
 30
0.0
 11
0.406114516332309
 21
1.031479428198508
 31
0.0
  0
LINE
  5
105
330
2D
100
AcDbEntity
  8
www.archlounge.com Layer 01
100
AcDbLine
 10
0.4067356068590016
 20
1.018446610807586
 30
0.0
 11
0.408598896690819
 21
1.027135159047247
 31
0.0
  0
LINE
  5
106
330
2D
100
AcDbEntity
  8
www.archlounge.com Layer 01
100
AcDbLine
 10
0.3912083254108438
 20
1.01286112048001
 30
0.0
 11
0.4067356068590016
 21
1.018446610807586
 31
0.0
  0
LINE
  5
107
330
2D
100
AcDbEntity
  8
www.archlounge.com Layer 01
100
AcDbLine
 10
0.3738177723826084
 20
1.010068370347653
 30
0.0
 11
0.3912083254108438
 21
1.01286112048001
 31
0.0
  0
LINE
  5
108
330
2D
100
AcDbEntity
  8
www.archlounge.com Layer 01
100
AcDbLine
 10
0.3527006579315639
 20
1.010068370347653
 30
0.0
 11
0.3738177723826084
 21
1.010068370347653
 31
0.0
  0
LINE
  5
109
330
2D
100
AcDbEntity
  8
www.archlounge.com Layer 01
100
AcDbLine
 10
0.3393471842100553
 20
1.010999283746059
 30
0.0
 11
0.3527006579315639
 21
1.010068370347653
 31
0.0
  0
LINE
  5
10A
330
2D
100
AcDbEntity
  8
www.archlounge.com Layer 01
100
AcDbLine
 10
0.3238199027618975
 20
1.010378678125562
 30
0.0
 11
0.3393471842100553
 21
1.010999283746059
 31
0.0
  0
LINE
  5
10B
330
2D
100
AcDbEntity
  8
www.archlounge.com Layer 01
100
AcDbLine
 10
0.3107769834241481
 20
1.00851684139161
 30
0.0
 11
0.3238199027618975
 21
1.010378678125562
 31
0.0
  0
LINE
  5
10C
330
2D
100
AcDbEntity
  8
www.archlounge.com Layer 01
100
AcDbLine
 10
0.3042555237589113
 20
1.004482880020077
 30
0.0
 11
0.3107769834241481
 21
1.00851684139161
 31
0.0
  0
LINE
  5
10D
330
2D
100
AcDbEntity
  8
www.archlounge.com Layer 01
100
AcDbLine
 10
0.2964918647849117
 20
0.9988973896906827
 30
0.0
 11
0.3042555237589113
 21
1.004482880020077
 31
0.0
  0
LINE
  5
10E
330
2D
100
AcDbEntity
  8
www.archlounge.com Layer 01
100
AcDbLine
 10
0.2778591306960152
 20
0.9939325049817853
 30
0.0
 11
0.2964918647849117
 21
0.9988973896906827
 31
0.0
  0
LINE
  5
10F
330
2D
100
AcDbEntity
  8
www.archlounge.com Layer 01
100
AcDbLine
 10
0.2784802212263457
 20
0.9874160913186642
 30
0.0
 11
0.2778591306960152
 21
0.9939325049817853
 31
0.0
  0
LINE
  5
110
330
2D
100
AcDbEntity
  8
www.archlounge.com Layer 01
100
AcDbLine
 10
0.292171311986749
 20
0.9832631958543061
 30
0.0
 11
0.2784802212263457
 21
0.9874160913186642
 31
0.0
  0
LINE
  5
111
330
2D
100
AcDbEntity
  8
www.archlounge.com Layer 01
100
AcDbLine
 10
0.2937240291830676
 20
0.9789189267030451
 30
0.0
 11
0.292171311986749
 21
0.9832631958543061
 31
0.0
  0
LINE
  5
112
330
2D
100
AcDbEntity
  8
www.archlounge.com Layer 01
100
AcDbLine
 10
0.3011771337660321
 20
0.974574647614645
 30
0.0
 11
0.2937240291830676
 21
0.9789189267030451
 31
0.0
  0
LINE
  5
113
330
2D
100
AcDbEntity
  8
www.archlounge.com Layer 01
100
AcDbLine
 10
0.3076985934349068
 20
0.972402513039924
 30
0.0
 11
0.3011771337660321
 21
0.974574647614645
 31
0.0
  0
LINE
  5
114
330
2D
100
AcDbEntity
  8
www.archlounge.com Layer 01
100
AcDbLine
 10
0.3132220745865197
 20
0.9706981057315715
 30
0.0
 11
0.3076985934349068
 21
0.972402513039924
 31
0.0
  0
LINE
  5
115
330
2D
100
AcDbEntity
  8
www.archlounge.com Layer 01
100
AcDbLine
 10
0.3586444950851728
 20
0.8115777618531865
 30
0.0
 11
0.3132220745865197
 21
0.9706981057315715
 31
0.0
  0
LINE
  5
116
330
2D
100
AcDbEntity
  8
www.archlounge.com Layer 01
100
AcDbLine
 10
0.2479717471796903
 20
0.9782927266405749
 30
0.0
 11
0.247261236570921
 21
0.99300158164624
 31
0.0
  0
LINE
  5
117
330
2D
100
AcDbEntity
  8
www.archlounge.com Layer 01
100
AcDbLine
 10
0.2530041224636079
 20
0.9721468181578529
 30
0.0
 11
0.2479717471796903
 21
0.9782927266405749
 31
0.0
  0
LINE
  5
118
330
2D
100
AcDbEntity
  8
www.archlounge.com Layer 01
100
AcDbLine
 10
0.2608322536798369
 20
0.9687944945035269
 30
0.0
 11
0.2530041224636079
 21
0.9721468181578529
 31
0.0
  0
LINE
  5
119
330
2D
100
AcDbEntity
  8
www.archlounge.com Layer 01
100
AcDbLine
 10
0.2644667509957799
 20
0.9648834618346882
 30
0.0
 11
0.2608322536798369
 21
0.9687944945035269
 31
0.0
  0
LINE
  5
11A
330
2D
100
AcDbEntity
  8
www.archlounge.com Layer 01
100
AcDbLine
 10
0.2655850606679451
 20
0.9590168979229929
 30
0.0
 11
0.2644667509957799
 21
0.9648834618346882
 31
0.0
  0
LINE
  5
11B
330
2D
100
AcDbEntity
  8
www.archlounge.com Layer 01
100
AcDbLine
 10
0.2739723467202566
 20
0.9565026676045818
 30
0.0
 11
0.2655850606679451
 21
0.9590168979229929
 31
0.0
  0
LINE
  5
11C
330
2D
100
AcDbEntity
  8
www.archlounge.com Layer 01
100
AcDbLine
 10
0.2818004779364855
 20
0.9612517836721963
 30
0.0
 11
0.2739723467202566
 21
0.9565026676045818
 31
0.0
  0
LINE
  5
11D
330
2D
100
AcDbEntity
  8
www.archlounge.com Layer 01
100
AcDbLine
 10
0.2863066553254612
 20
0.9581761415138316
 30
0.0
 11
0.2818004779364855
 21
0.9612517836721963
 31
0.0
  0
LINE
  5
11E
330
2D
100
AcDbEntity
  8
www.archlounge.com Layer 01
100
AcDbLine
 10
0.3210766115043953
 20
0.8370903856193763
 30
0.0
 11
0.2863066553254612
 21
0.9581761415138316
 31
0.0
  0
LINE
  5
11F
330
2D
100
AcDbEntity
  8
www.archlounge.com Layer 01
100
AcDbLine
 10
0.3303848314208153
 20
0.8034142998039897
 30
0.0
 11
0.3210766115043953
 21
0.8370903856193763
 31
0.0
  0
LINE
  5
120
330
2D
100
AcDbEntity
  8
www.archlounge.com Layer 01
100
AcDbLine
 10
0.3698243254366389
 20
0.8025674031578091
 30
0.0
 11
0.3327450110591599
 21
0.7936765606391419
 31
0.0
  0
LINE
  5
121
330
2D
100
AcDbEntity
  8
www.archlounge.com Layer 01
100
AcDbLine
 10
0.3754333194483479
 20
0.8054818200143927
 30
0.0
 11
0.3698243254366389
 21
0.8025674031578091
 31
0.0
  0
LINE
  5
122
330
2D
100
AcDbEntity
  8
www.archlounge.com Layer 01
100
AcDbLine
 10
0.3765551146025245
 20
0.8095171626082446
 30
0.0
 11
0.3754333194483479
 21
0.8054818200143927
 31
0.0
  0
LINE
  5
123
330
2D
100
AcDbEntity
  8
www.archlounge.com Layer 01
100
AcDbLine
 10
0.3734140772248793
 20
0.8157943666155915
 30
0.0
 11
0.3765551146025245
 21
0.8095171626082446
 31
0.0
  0
LINE
  5
124
330
2D
100
AcDbEntity
  8
www.archlounge.com Layer 01
100
AcDbLine
 10
0.357708890340291
 20
0.8113106537257408
 30
0.0
 11
0.3734140772248793
 21
0.8157943666155915
 31
0.0
  0
LINE
  5
125
330
2D
100
AcDbEntity
  8
www.archlounge.com Layer 01
100
AcDbLine
 10
0.3350485479604686
 20
0.8043608843381662
 30
0.0
 11
0.357708890340291
 21
0.8113106537257408
 31
0.0
  0
LINE
  5
126
330
2D
100
AcDbEntity
  8
www.archlounge.com Layer 01
100
AcDbLine
 10
0.320689540803869
 20
0.8014464674834016
 30
0.0
 11
0.3350485479604686
 21
0.8043608843381662
 31
0.0
  0
LINE
  5
127
330
2D
100
AcDbEntity
  8
www.archlounge.com Layer 01
100
AcDbLine
 10
0.3135100189792865
 20
0.8001013565972243
 30
0.0
 11
0.320689540803869
 21
0.8014464674834016
 31
0.0
  0
LINE
  5
128
330
2D
100
AcDbEntity
  8
www.archlounge.com Layer 01
100
AcDbLine
 10
0.3085741057075211
 20
0.7956176337702346
 30
0.0
 11
0.3135100189792865
 21
0.8001013565972243
 31
0.0
  0
LINE
  5
129
330
2D
100
AcDbEntity
  8
www.archlounge.com Layer 01
100
AcDbLine
 10
0.3096959008616977
 20
0.790685540649065
 30
0.0
 11
0.3085741057075211
 21
0.7956176337702346
 31
0.0
  0
LINE
  5
12A
330
2D
100
AcDbEntity
  8
www.archlounge.com Layer 01
100
AcDbLine
 10
0.3191190129909955
 20
0.7893404297628877
 30
0.0
 11
0.3096959008616977
 21
0.790685540649065
 31
0.0
  0
LINE
  5
12B
330
2D
100
AcDbEntity
  8
www.archlounge.com Layer 01
100
AcDbLine
 10
0.3327450110591599
 20
0.7936765606391419
 30
0.0
 11
0.3191190129909955
 21
0.7893404297628877
 31
0.0
  0
LINE
  5
12C
330
2D
100
AcDbEntity
  8
www.archlounge.com Layer 01
100
AcDbLine
 10
0.3336086448471178
 20
0.7896575588238193
 30
0.0
 11
0.3327450110591599
 21
0.7936765606391419
 31
0.0
  0
LINE
  5
12D
330
2D
100
AcDbEntity
  8
www.archlounge.com Layer 01
100
AcDbLine
 10
0.3465152276767185
 20
0.7456303874496371
 30
0.0
 11
0.3336086448471178
 21
0.7896575588238193
 31
0.0
  0
LINE
  5
12E
330
2D
100
AcDbEntity
  8
www.archlounge.com Layer 01
100
AcDbLine
 10
0.3583724453201285
 20
0.7051828297808243
 30
0.0
 11
0.3465152276767185
 21
0.7456303874496371
 31
0.0
  0
LINE
  5
12F
330
2D
100
AcDbEntity
  8
www.archlounge.com Layer 01
100
AcDbLine
 10
0.3702095165281207
 20
0.6786500142570731
 30
0.0
 11
0.3583724453201285
 21
0.7051828297808243
 31
0.0
  0
LINE
  5
130
330
2D
100
AcDbEntity
  8
www.archlounge.com Layer 01
100
AcDbLine
 10
0.3846059332790901
 20
0.6620270348394115
 30
0.0
 11
0.3702095165281207
 21
0.6786500142570731
 31
0.0
  0
LINE
  5
131
330
2D
100
AcDbEntity
  8
www.archlounge.com Layer 01
100
AcDbLine
 10
0.4027928161558521
 20
0.6434837854194484
 30
0.0
 11
0.3846059332790901
 21
0.6620270348394115
 31
0.0
  0
LINE
  5
132
330
2D
100
AcDbEntity
  8
www.archlounge.com Layer 01
100
AcDbLine
 10
0.412165089561313
 20
0.6196810529745563
 30
0.0
 11
0.4027928161558521
 21
0.6434837854194484
 31
0.0
  0
LINE
  5
133
330
2D
100
AcDbEntity
  8
www.archlounge.com Layer 01
100
AcDbLine
 10
0.4198431809272734
 20
0.6001810291745642
 30
0.0
 11
0.412165089561313
 21
0.6196810529745563
 31
0.0
  0
LINE
  5
134
330
2D
100
AcDbEntity
  8
www.archlounge.com Layer 01
100
AcDbLine
 10
0.4256017403276929
 20
0.5838777279805072
 30
0.0
 11
0.4198431809272734
 21
0.6001810291745642
 31
0.0
  0
LINE
  5
135
330
2D
100
AcDbEntity
  8
www.archlounge.com Layer 01
100
AcDbLine
 10
0.4250036209341488
 20
0.5724264302989468
 30
0.0
 11
0.4256017403276929
 21
0.5838777279805072
 31
0.0
  0
ARC
  5
136
330
2D
100
AcDbEntity
  8
www.archlounge.com Layer 01
100
AcDbCircle
 10
0.0521961572194414
 20
0.4055945669842913
 30
0.0
 40
0.3240388971037669
100
AcDbArc
 50
36.20032453337932
 51
41.75963045458016
  0
ARC
  5
137
330
2D
100
AcDbEntity
  8
www.archlounge.com Layer 01
100
AcDbCircle
 10
0.0521961572194414
 20
0.4055945669842913
 30
0.0
 40
0.2722769010988573
100
AcDbArc
 50
36.35825962807505
 51
41.91518501250567
  0
ARC
  5
138
330
2D
100
AcDbEntity
  8
www.archlounge.com Layer 01
100
AcDbCircle
 10
0.0559466020786204
 20
0.3973623991878412
 30
0.0
 40
0.06425055185008
100
AcDbArc
 50
356.8225405714112
 51
35.54348445431593
  0
LINE
  5
139
330
2D
100
AcDbEntity
  8
www.archlounge.com Layer 01
100
AcDbLine
 10
0.3490144490460807
 20
0.4537861373446504
 30
0.0
 11
0.4518947090873553
 21
0.4693712895332283
 31
0.0
  0
LINE
  5
13A
330
2D
100
AcDbEntity
  8
www.archlounge.com Layer 01
100
AcDbLine
 10
0.2968835578540165
 20
0.4461006474011811
 30
0.0
 11
0.3490144490460807
 21
0.4537861373446504
 31
0.0
  0
LINE
  5
13B
330
2D
100
AcDbEntity
  8
www.archlounge.com Layer 01
100
AcDbLine
 10
0.2050135510580731
 20
0.4324375631713338
 30
0.0
 11
0.2968835578540165
 21
0.4461006474011811
 31
0.0
  0
LINE
  5
13C
330
2D
100
AcDbEntity
  8
www.archlounge.com Layer 01
100
AcDbLine
 10
0.1143238817458041
 20
0.4241994376134244
 30
0.0
 11
0.2050135510580731
 21
0.4324375631713338
 31
0.0
  0
LINE
  5
13D
330
2D
100
AcDbEntity
  8
www.archlounge.com Layer 01
100
AcDbLine
 10
0.0915127647058398
 20
0.3741898899588705
 30
0.0
 11
0.3822581421554787
 21
0.3553975785653165
 31
0.0
  0
LINE
  5
13E
330
2D
100
AcDbEntity
  8
www.archlounge.com Layer 01
100
AcDbLine
 10
0.0824197751826432
 20
0.3802471910239546
 30
0.0
 11
0.0915127647058398
 21
0.3741898899588705
 31
0.0
  0
LINE
  5
13F
330
2D
100
AcDbEntity
  8
www.archlounge.com Layer 01
100
AcDbLine
 10
0.0819756499840878
 20
0.3878056198864215
 30
0.0
 11
0.0824197751826432
 21
0.3802471910239546
 31
0.0
  0
LINE
  5
140
330
2D
100
AcDbEntity
  8
www.archlounge.com Layer 01
100
AcDbLine
 10
0.0880957623121503
 20
0.3947914774544188
 30
0.0
 11
0.0819756499840878
 21
0.3878056198864215
 31
0.0
  0
LINE
  5
141
330
2D
100
AcDbEntity
  8
www.archlounge.com Layer 01
100
AcDbLine
 10
0.0880957623121503
 20
0.3947914774544188
 30
0.0
 11
0.3777744301369239
 21
0.3858266258903313
 31
0.0
  0
LINE
  5
142
330
2D
100
AcDbEntity
  8
www.archlounge.com Layer 01
100
AcDbLine
 10
0.0812438920329442
 20
0.311747392264806
 30
0.0
 11
0.0837832873039588
 21
0.3256014775834046
 31
0.0
  0
LINE
  5
143
330
2D
100
AcDbEntity
  8
www.archlounge.com Layer 01
100
AcDbLine
 10
0.0779911662175437
 20
0.2932462047756417
 30
0.0
 11
0.0812438920329442
 21
0.311747392264806
 31
0.0
  0
LINE
  5
144
330
2D
100
AcDbEntity
  8
www.archlounge.com Layer 01
100
AcDbLine
 10
0.0768201596292784
 20
0.2761961238029471
 30
0.0
 11
0.0779911662175437
 21
0.2932462047756417
 31
0.0
  0
LINE
  5
145
330
2D
100
AcDbEntity
  8
www.archlounge.com Layer 01
100
AcDbLine
 10
0.0863869251843426
 20
0.2912733486373327
 30
0.0
 11
0.0838241052806552
 21
0.2716046444511448
 31
0.0
  0
LINE
  5
146
330
2D
100
AcDbEntity
  8
www.archlounge.com Layer 01
100
AcDbLine
 10
0.0924319037294481
 20
0.3154345033872232
 30
0.0
 11
0.0863869251843426
 21
0.2912733486373327
 31
0.0
  0
LINE
  5
147
330
2D
100
AcDbEntity
  8
www.archlounge.com Layer 01
100
AcDbLine
 10
0.0975193377926189
 20
0.335768451779586
 30
0.0
 11
0.0924319037294481
 21
0.3154345033872232
 31
0.0
  0
LINE
  5
148
330
2D
100
AcDbEntity
  8
www.archlounge.com Layer 01
100
AcDbLine
 10
0.0995543015014846
 20
0.3489855218322191
 30
0.0
 11
0.0975193377926189
 21
0.335768451779586
 31
0.0
  0
LINE
  5
149
330
2D
100
AcDbEntity
  8
www.archlounge.com Layer 01
100
AcDbLine
 10
0.0909056850759953
 20
0.3550857045502198
 30
0.0
 11
0.0995543015014846
 21
0.3489855218322191
 31
0.0
  0
LINE
  5
14A
330
2D
100
AcDbEntity
  8
www.archlounge.com Layer 01
100
AcDbLine
 10
0.070047220287961
 20
0.3601691916483105
 30
0.0
 11
0.0909056850759953
 21
0.3550857045502198
 31
0.0
  0
LINE
  5
14B
330
2D
100
AcDbEntity
  8
www.archlounge.com Layer 01
100
AcDbLine
 10
0.0496975170863152
 20
0.3591524960284005
 30
0.0
 11
0.070047220287961
 21
0.3601691916483105
 31
0.0
  0
LINE
  5
14C
330
2D
100
AcDbEntity
  8
www.archlounge.com Layer 01
100
AcDbLine
 10
0.0313827775935352
 20
0.3540690089303098
 30
0.0
 11
0.0496975170863152
 21
0.3591524960284005
 31
0.0
  0
LINE
  5
14D
330
2D
100
AcDbEntity
  8
www.archlounge.com Layer 01
100
AcDbLine
 10
0.0119398513488704
 20
0.3505485198002134
 30
0.0
 11
0.0313827775935352
 21
0.3540690089303098
 31
0.0
  0
LINE
  5
14E
330
2D
100
AcDbEntity
  8
www.archlounge.com Layer 01
100
AcDbLine
 10
0.011595742940699
 20
0.337373421745724
 30
0.0
 11
0.0119398513488704
 21
0.3505485198002134
 31
0.0
  0
LINE
  5
14F
330
2D
100
AcDbEntity
  8
www.archlounge.com Layer 01
100
AcDbLine
 10
0.0135767831598059
 20
0.3164512080056738
 30
0.0
 11
0.011595742940699
 21
0.337373421745724
 31
0.0
  0
LINE
  5
150
330
2D
100
AcDbEntity
  8
www.archlounge.com Layer 01
100
AcDbLine
 10
0.0147646698642348
 20
0.3039056678662746
 30
0.0
 11
0.0135767831598059
 21
0.3164512080056738
 31
0.0
  0
LINE
  5
151
330
2D
100
AcDbEntity
  8
www.archlounge.com Layer 01
100
AcDbLine
 10
0.0237516347588098
 20
0.3052675291910418
 30
0.0
 11
0.0181559321463283
 21
0.3028213047709869
 31
0.0
  0
LINE
  5
152
330
2D
100
AcDbEntity
  8
www.archlounge.com Layer 01
100
AcDbLine
 10
0.0400314105427242
 20
0.3123844165274932
 30
0.0
 11
0.0237516347588098
 21
0.3052675291910418
 31
0.0
  0
LINE
  5
153
330
2D
100
AcDbEntity
  8
www.archlounge.com Layer 01
100
AcDbLine
 10
0.054784951149486
 20
0.3184845992454939
 30
0.0
 11
0.0400314105427242
 21
0.3123844165274932
 31
0.0
  0
LINE
  5
154
330
2D
100
AcDbEntity
  8
www.archlounge.com Layer 01
100
AcDbLine
 10
0.0608898588070588
 20
0.3220430384135398
 30
0.0
 11
0.054784951149486
 21
0.3184845992454939
 31
0.0
  0
LINE
  5
155
330
2D
100
AcDbEntity
  8
www.archlounge.com Layer 01
100
AcDbLine
 10
0.069029746697197
 20
0.3296682690615853
 30
0.0
 11
0.0608898588070588
 21
0.3220430384135398
 31
0.0
  0
LINE
  5
156
330
2D
100
AcDbEntity
  8
www.archlounge.com Layer 01
100
AcDbLine
 10
0.0837832873039588
 20
0.3256014775834046
 30
0.0
 11
0.069029746697197
 21
0.3296682690615853
 31
0.0
  0
LINE
  5
157
330
2D
100
AcDbEntity
  8
www.archlounge.com Layer 01
100
AcDbLine
 10
0.0726656798578915
 20
0.3024155888615496
 30
0.0
 11
0.0837832873039588
 21
0.3256014775834046
 31
0.0
  0
LINE
  5
158
330
2D
100
AcDbEntity
  8
www.archlounge.com Layer 01
100
AcDbLine
 10
0.0726656798578915
 20
0.3024155888615496
 30
0.0
 11
0.0522599186733714
 21
0.2676453885451337
 31
0.0
  0
LINE
  5
159
330
2D
100
AcDbEntity
  8
www.archlounge.com Layer 01
100
AcDbLine
 10
0.1552230722372769
 20
0.2463664079969021
 30
0.0
 11
0.0716727885410364
 21
0.2375369117653463
 31
0.0
  0
LINE
  5
15A
330
2D
100
AcDbEntity
  8
www.archlounge.com Layer 01
100
AcDbLine
 10
0.2483396804418589
 20
0.2586431054733111
 30
0.0
 11
0.1552230722372769
 21
0.2463664079969021
 31
0.0
  0
LINE
  5
15B
330
2D
100
AcDbEntity
  8
www.archlounge.com Layer 01
100
AcDbLine
 10
0.3692619503999595
 20
0.278673516564595
 30
0.0
 11
0.2483396804418589
 21
0.2586431054733111
 31
0.0
  0
LINE
  5
15C
330
2D
100
AcDbEntity
  8
www.archlounge.com Layer 01
100
AcDbLine
 10
0.4649594857692137
 20
0.2959016635832086
 30
0.0
 11
0.3692619503999595
 21
0.278673516564595
 31
0.0
  0
CIRCLE
  5
15D
330
2D
100
AcDbEntity
  8
www.archlounge.com Layer 01
100
AcDbCircle
 10
0.0695641744314344
 20
0.2574899535065924
 30
0.0
 40
0.0200641503245884
  0
ARC
  5
15E
330
2D
100
AcDbEntity
  8
www.archlounge.com Layer 01
100
AcDbCircle
 10
0.0559466020786204
 20
0.3973623991878412
 30
0.0
 40
0.06425055185008
100
AcDbArc
 50
311.8541253670206
 51
337.3845339563607
  0
LINE
  5
15F
330
2D
100
AcDbEntity
  8
www.archlounge.com Layer 01
100
AcDbLine
 10
0.4582602241353016
 20
0.3672604399871489
 30
0.0
 11
0.5838453211326851
 21
0.3638021169390413
 31
0.0
  0
ARC
  5
160
330
2D
100
AcDbEntity
  8
www.archlounge.com Layer 01
100
AcDbCircle
 10
0.4625418118957896
 20
0.3846361365358461
 30
0.0
 40
0.0178954414406239
100
AcDbArc
 50
104.7568933102621
 51
256.1573800499614
  0
LINE
  5
161
330
2D
100
AcDbEntity
  8
www.archlounge.com Layer 01
100
AcDbLine
 10
0.6834846019119141
 20
0.3769736786089197
 30
0.0
 11
0.6826777791538916
 21
0.3909661371235415
 31
0.0
  0
LINE
  5
162
330
2D
100
AcDbEntity
  8
www.archlounge.com Layer 01
100
AcDbLine
 10
0.6794246071112866
 20
0.3630058331727923
 30
0.0
 11
0.6834846019119141
 21
0.3769736786089197
 31
0.0
  0
LINE
  5
163
330
2D
100
AcDbEntity
  8
www.archlounge.com Layer 01
100
AcDbLine
 10
0.6826777791538916
 20
0.3909661371235415
 30
0.0
 11
0.6794246071112866
 21
0.3766971482000372
 31
0.0
  0
LINE
  5
164
330
2D
100
AcDbEntity
  8
www.archlounge.com Layer 01
100
AcDbLine
 10
0.5959596775392129
 20
0.3909661371235415
 30
0.0
 11
0.6826777791538916
 21
0.3909661371235415
 31
0.0
  0
LINE
  5
165
330
2D
100
AcDbEntity
  8
www.archlounge.com Layer 01
100
AcDbLine
 10
0.5838453211326851
 20
0.3766971482000372
 30
0.0
 11
0.5959596775392129
 21
0.3909661371235415
 31
0.0
  0
LINE
  5
166
330
2D
100
AcDbEntity
  8
www.archlounge.com Layer 01
100
AcDbLine
 10
0.6794246071112866
 20
0.3766971482000372
 30
0.0
 11
0.5838453211326851
 21
0.3766971482000372
 31
0.0
  0
LINE
  5
167
330
2D
100
AcDbEntity
  8
www.archlounge.com Layer 01
100
AcDbLine
 10
0.6794246071112866
 20
0.3630058331727923
 30
0.0
 11
0.6794246071112866
 21
0.3766971482000372
 31
0.0
  0
LINE
  5
168
330
2D
100
AcDbEntity
  8
www.archlounge.com Layer 01
100
AcDbLine
 10
0.6730749372727587
 20
0.3539896081310871
 30
0.0
 11
0.6794246071112866
 21
0.3630058331727923
 31
0.0
  0
LINE
  5
169
330
2D
100
AcDbEntity
  8
www.archlounge.com Layer 01
100
AcDbLine
 10
0.5838453211326851
 20
0.3539896081310871
 30
0.0
 11
0.6730749372727587
 21
0.3539896081310871
 31
0.0
  0
LINE
  5
16A
330
2D
100
AcDbEntity
  8
www.archlounge.com Layer 01
100
AcDbLine
 10
0.5838453211326851
 20
0.3766971482000372
 30
0.0
 11
0.5838453211326851
 21
0.3539896081310871
 31
0.0
  0
LINE
  5
16B
330
2D
100
AcDbEntity
  8
www.archlounge.com Layer 01
100
AcDbLine
 10
0.6427629008285294
 20
0.3968478888964455
 30
0.0
 11
0.6477069151624164
 21
0.3925332567687292
 31
0.0
  0
LINE
  5
16C
330
2D
100
AcDbEntity
  8
www.archlounge.com Layer 01
100
AcDbLine
 10
0.5837184447445907
 20
0.3981212444759876
 30
0.0
 11
0.6427629008285294
 21
0.3968478888964455
 31
0.0
  0
LINE
  5
16D
330
2D
100
AcDbEntity
  8
www.archlounge.com Layer 01
100
AcDbLine
 10
0.4579835156073387
 20
0.4019413022197114
 30
0.0
 11
0.5837184447445907
 21
0.3981212444759876
 31
0.0
  0
CIRCLE
  5
16E
330
2D
100
AcDbEntity
  8
www.archlounge.com Layer 01
100
AcDbCircle
 10
0.4649594857692137
 20
0.3831284600637446
 30
0.0
 40
0.0104346243546718
  0
ARC
  5
16F
330
2D
100
AcDbEntity
  8
www.archlounge.com Layer 01
100
AcDbCircle
 10
0.4649594857692137
 20
0.3831284600637446
 30
0.0
 40
0.0872267964814213
100
AcDbArc
 50
10.56675105851511
 51
347.8219824791239
  0
LINE
  5
170
330
2D
100
AcDbEntity
  8
www.archlounge.com Layer 01
100
AcDbLine
 10
0.3282263223954942
 20
0.5784287456572202
 30
0.0
 11
0.3315461008860439
 21
0.5859993517369731
 31
0.0
  0
LINE
  5
171
330
2D
100
AcDbEntity
  8
www.archlounge.com Layer 01
100
AcDbLine
 10
0.1057907461072318
 20
0.433121968735577
 30
0.0
 11
0.3282263223954942
 21
0.5784287456572202
 31
0.0
  0
LINE
  5
172
330
2D
100
AcDbEntity
  8
www.archlounge.com Layer 01
100
AcDbLine
 10
0.0728990881179925
 20
0.4085949687232642
 30
0.0
 11
0.1057907461072318
 21
0.433121968735577
 31
0.0
  0
LINE
  5
173
330
2D
100
AcDbEntity
  8
www.archlounge.com Layer 01
100
AcDbLine
 10
0.0601351616314787
 20
0.4002557878193329
 30
0.0
 11
0.0728990881179925
 21
0.4085949687232642
 31
0.0
  0
LINE
  5
174
330
2D
100
AcDbEntity
  8
www.archlounge.com Layer 01
100
AcDbLine
 10
0.0488439895343618
 20
0.396822006916409
 30
0.0
 11
0.0601351616314787
 21
0.4002557878193329
 31
0.0
  0
LINE
  5
175
330
2D
100
AcDbEntity
  8
www.archlounge.com Layer 01
100
AcDbLine
 10
0.041480184521788
 20
0.4002557878193329
 30
0.0
 11
0.0488439895343618
 21
0.396822006916409
 31
0.0
  0
LINE
  5
176
330
2D
100
AcDbEntity
  8
www.archlounge.com Layer 01
100
AcDbLine
 10
0.0419711136710248
 20
0.4090855114227452
 30
0.0
 11
0.041480184521788
 21
0.4002557878193329
 31
0.0
  0
LINE
  5
177
330
2D
100
AcDbEntity
  8
www.archlounge.com Layer 01
100
AcDbLine
 10
0.0758445969040622
 20
0.4301787215335935
 30
0.0
 11
0.0419711136710248
 21
0.4090855114227452
 31
0.0
  0
LINE
  5
178
330
2D
100
AcDbEntity
  8
www.archlounge.com Layer 01
100
AcDbLine
 10
0.204520903120283
 20
0.5194858227278019
 30
0.0
 11
0.0758445969040622
 21
0.4301787215335935
 31
0.0
  0
LINE
  5
179
330
2D
100
AcDbEntity
  8
www.archlounge.com Layer 01
100
AcDbLine
 10
0.3215120874629065
 20
0.6025338496092445
 30
0.0
 11
0.204520903120283
 21
0.5194858227278019
 31
0.0
  0
LINE
  5
17A
330
2D
100
AcDbEntity
  8
www.archlounge.com Layer 01
100
AcDbLine
 10
0.3354636476688029
 20
0.6115543493178848
 30
0.0
 11
0.3215120874629065
 21
0.6025338496092445
 31
0.0
  0
LINE
  5
17B
330
2D
100
AcDbEntity
  8
www.archlounge.com Layer 01
100
AcDbLine
 10
0.354612859289773
 20
0.6088208667406434
 30
0.0
 11
0.3354636476688029
 21
0.6115543493178848
 31
0.0
  0
LINE
  5
17C
330
2D
100
AcDbEntity
  8
www.archlounge.com Layer 01
100
AcDbLine
 10
0.3765834632868064
 20
0.5978478164797707
 30
0.0
 11
0.354612859289773
 21
0.6088208667406434
 31
0.0
  0
LINE
  5
17D
330
2D
100
AcDbEntity
  8
www.archlounge.com Layer 01
100
AcDbLine
 10
0.4118727329660033
 20
0.5809002226924349
 30
0.0
 11
0.3765834632868064
 21
0.5978478164797707
 31
0.0
  0
LINE
  5
17E
330
2D
100
AcDbEntity
  8
www.archlounge.com Layer 01
100
AcDbLine
 10
0.4250036209341488
 20
0.5724264302989468
 30
0.0
 11
0.4118727329660033
 21
0.5809002226924349
 31
0.0
  0
LINE
  5
17F
330
2D
100
AcDbEntity
  8
www.archlounge.com Layer 01
100
AcDbLine
 10
0.4282863429289137
 20
0.5579389654321858
 30
0.0
 11
0.4250036209341488
 21
0.5724264302989468
 31
0.0
  0
LINE
  5
180
330
2D
100
AcDbEntity
  8
www.archlounge.com Layer 01
100
AcDbLine
 10
0.4250036209341488
 20
0.5516519573011465
 30
0.0
 11
0.4282863429289137
 21
0.5579389654321858
 31
0.0
  0
LINE
  5
181
330
2D
100
AcDbEntity
  8
www.archlounge.com Layer 01
100
AcDbLine
 10
0.4181646085198736
 20
0.5486451210654196
 30
0.0
 11
0.4250036209341488
 21
0.5516519573011465
 31
0.0
  0
LINE
  5
182
330
2D
100
AcDbEntity
  8
www.archlounge.com Layer 01
100
AcDbLine
 10
0.4075800570863067
 20
0.552657781769085
 30
0.0
 11
0.4181646085198736
 21
0.5486451210654196
 31
0.0
  0
LINE
  5
183
330
2D
100
AcDbEntity
  8
www.archlounge.com Layer 01
100
AcDbLine
 10
0.3315461008860439
 20
0.5859993517369731
 30
0.0
 11
0.4075800570863067
 21
0.552657781769085
 31
0.0
  0
LINE
  5
184
330
2D
100
AcDbEntity
  8
www.archlounge.com Layer 01
100
AcDbLine
 10
0.4234109905119113
 20
0.4650563403993147
 30
0.0
 11
0.4131422570681025
 21
0.5498788347413211
 31
0.0
  0
LINE
  5
185
330
2D
100
AcDbEntity
  8
www.archlounge.com Layer 01
100
AcDbLine
 10
0.452633900091314
 20
0.5265356742984296
 30
0.0
 11
0.4582819031784311
 21
0.4700992822708941
 31
0.0
  0
LINE
  5
186
330
2D
100
AcDbEntity
  8
www.archlounge.com Layer 01
100
AcDbLine
 10
0.4498491972553893
 20
0.567298612661034
 30
0.0
 11
0.452633900091314
 21
0.5265356742984296
 31
0.0
  0
LINE
  5
187
330
2D
100
AcDbEntity
  8
www.archlounge.com Layer 01
100
AcDbLine
 10
0.4453994339637575
 20
0.5973112513729575
 30
0.0
 11
0.4498491972553893
 21
0.567298612661034
 31
0.0
  0
LINE
  5
188
330
2D
100
AcDbEntity
  8
www.archlounge.com Layer 01
100
AcDbLine
 10
0.4398372339783237
 20
0.6178754647862661
 30
0.0
 11
0.4453994339637575
 21
0.5973112513729575
 31
0.0
  0
LINE
  5
189
330
2D
100
AcDbEntity
  8
www.archlounge.com Layer 01
100
AcDbLine
 10
0.4248192808008753
 20
0.6489996697109746
 30
0.0
 11
0.4398372339783237
 21
0.6178754647862661
 31
0.0
  0
LINE
  5
18A
330
2D
100
AcDbEntity
  8
www.archlounge.com Layer 01
100
AcDbLine
 10
0.4102874970449193
 20
0.6737213875203452
 30
0.0
 11
0.4248192808008753
 21
0.6489996697109746
 31
0.0
  0
LINE
  5
18B
330
2D
100
AcDbEntity
  8
www.archlounge.com Layer 01
100
AcDbLine
 10
0.4366230982850539
 20
0.6866559786285507
 30
0.0
 11
0.4102874970449193
 21
0.6737213875203452
 31
0.0
  0
LINE
  5
18C
330
2D
100
AcDbEntity
  8
www.archlounge.com Layer 01
100
AcDbLine
 10
0.5577216432902788
 20
0.7403204986785568
 30
0.0
 11
0.4366230982850539
 21
0.6866559786285507
 31
0.0
  0
LINE
  5
18D
330
2D
100
AcDbEntity
  8
www.archlounge.com Layer 01
100
AcDbLine
 10
0.6260156474527321
 20
0.7737720208933752
 30
0.0
 11
0.5577216432902788
 21
0.7403204986785568
 31
0.0
  0
LINE
  5
18E
330
2D
100
AcDbEntity
  8
www.archlounge.com Layer 01
100
AcDbLine
 10
0.7104852588599897
 20
0.8113251078721077
 30
0.0
 11
0.6260156474527321
 21
0.7737720208933752
 31
0.0
  0
LINE
  5
18F
330
2D
100
AcDbEntity
  8
www.archlounge.com Layer 01
100
AcDbLine
 10
0.8028830496114096
 20
0.8501288722000026
 30
0.0
 11
0.7104852588599897
 21
0.8113251078721077
 31
0.0
  0
LINE
  5
190
330
2D
100
AcDbEntity
  8
www.archlounge.com Layer 01
100
AcDbLine
 10
0.8200061063180328
 20
0.8526419619865919
 30
0.0
 11
0.8028830496114096
 21
0.8501288722000026
 31
0.0
  0
LINE
  5
191
330
2D
100
AcDbEntity
  8
www.archlounge.com Layer 01
100
AcDbLine
 10
0.8669287524026003
 20
0.8793186601578781
 30
0.0
 11
0.8790639325998199
 21
0.8865941151143488
 31
0.0
  0
LINE
  5
192
330
2D
100
AcDbEntity
  8
www.archlounge.com Layer 01
100
AcDbLine
 10
0.8200061063180328
 20
0.8526419619865919
 30
0.0
 11
0.8669287524026003
 21
0.8793186601578781
 31
0.0
  0
LINE
  5
193
330
2D
100
AcDbEntity
  8
www.archlounge.com Layer 01
100
AcDbLine
 10
0.7819825736514759
 20
0.8178814199764019
 30
0.0
 11
0.8200061063180328
 21
0.8526419619865919
 31
0.0
  0
LINE
  5
194
330
2D
100
AcDbEntity
  8
www.archlounge.com Layer 01
100
AcDbLine
 10
0.7391049655998359
 20
0.7661448014023336
 30
0.0
 11
0.7819825736514759
 21
0.8178814199764019
 31
0.0
  0
LINE
  5
195
330
2D
100
AcDbEntity
  8
www.archlounge.com Layer 01
100
AcDbLine
 10
0.6921823195152684
 20
0.7071327278717945
 30
0.0
 11
0.7391049655998359
 21
0.7661448014023336
 31
0.0
  0
LINE
  5
196
330
2D
100
AcDbEntity
  8
www.archlounge.com Layer 01
100
AcDbLine
 10
0.6079258214340371
 20
0.5985254995684955
 30
0.0
 11
0.6921823195152684
 21
0.7071327278717945
 31
0.0
  0
LINE
  5
197
330
2D
100
AcDbEntity
  8
www.archlounge.com Layer 01
100
AcDbLine
 10
0.5027543533724384
 20
0.4651420267127833
 30
0.0
 11
0.6079258214340371
 21
0.5985254995684955
 31
0.0
  0
LINE
  5
198
330
2D
100
AcDbEntity
  8
www.archlounge.com Layer 01
100
AcDbLine
 10
0.7041981760812633
 20
0.656729193215142
 30
0.0
 11
0.5318787561009231
 21
0.4465491813825793
 31
0.0
  0
LINE
  5
199
330
2D
100
AcDbEntity
  8
www.archlounge.com Layer 01
100
AcDbLine
 10
0.7811390448259772
 20
0.7483066371478344
 30
0.0
 11
0.7041981760812633
 21
0.656729193215142
 31
0.0
  0
LINE
  5
19A
330
2D
100
AcDbEntity
  8
www.archlounge.com Layer 01
100
AcDbLine
 10
0.8143085021110891
 20
0.7871091055785655
 30
0.0
 11
0.7811390448259772
 21
0.7483066371478344
 31
0.0
  0
LINE
  5
19B
330
2D
100
AcDbEntity
  8
www.archlounge.com Layer 01
100
AcDbLine
 10
0.8353427957226813
 20
0.807318719676914
 30
0.0
 11
0.8143085021110891
 21
0.7871091055785655
 31
0.0
  0
LINE
  5
19C
330
2D
100
AcDbEntity
  8
www.archlounge.com Layer 01
100
AcDbLine
 10
0.8596131395897828
 20
0.826719953893189
 30
0.0
 11
0.8353427957226813
 21
0.807318719676914
 31
0.0
  0
LINE
  5
19D
330
2D
100
AcDbEntity
  8
www.archlounge.com Layer 01
100
AcDbLine
 10
0.8839258644584333
 20
0.8440727267734473
 30
0.0
 11
0.8596131395897828
 21
0.826719953893189
 31
0.0
  0
ARC
  5
19E
330
2D
100
AcDbEntity
  8
www.archlounge.com Layer 01
100
AcDbCircle
 10
1.098310593119094
 20
0.4055945669842913
 30
0.0
 40
0.2722769010988573
100
AcDbArc
 50
120.3402311713692
 51
105.4983854720808
  0
ARC
  5
19F
330
2D
100
AcDbEntity
  8
www.archlounge.com Layer 01
100
AcDbCircle
 10
1.098310593119094
 20
0.4055945669842913
 30
0.0
 40
0.3240388971037669
100
AcDbArc
 50
116.9174486398488
 51
105.327945342671
  0
ARC
  5
1A0
330
2D
100
AcDbEntity
  8
www.archlounge.com Layer 01
100
AcDbCircle
 10
0.0521961572194414
 20
0.4055945669842913
 30
0.0
 40
0.3240388971037669
100
AcDbArc
 50
356.5142342900726
 51
32.04685913524617
  0
ARC
  5
1A1
330
2D
100
AcDbEntity
  8
www.archlounge.com Layer 01
100
AcDbCircle
 10
0.0521961572194414
 20
0.4055945669842913
 30
0.0
 40
0.2722769010988573
100
AcDbArc
 50
356.188421270817
 51
31.83621360755508
  0
ENDBLK
  5
1A2
330
2D
100
AcDbEntity
  8
0
100
AcDbBlockEnd
  0
ENDSEC
  0
SECTION
  2
ENTITIES
  0
INSERT
  5
2C
330
2
100
AcDbEntity
  8
www.archlounge.com Layer 01
100
AcDbBlockReference
  2
www.archlounge.com_allg.0005.dxf
 10
-27152.93136185252
 20
-11780.60020895649
 30
0.0
  0
ENDSEC
  0
SECTION
  2
OBJECTS
  0
DICTIONARY
  5
9
330
0
100
AcDbDictionary
281
     1
  3
ACAD_COLOR
350
28
  3
ACAD_GROUP
350
24
  3
ACAD_LAYOUT
350
D
  3
ACAD_MATERIAL
350
27
  3
ACAD_MLINESTYLE
350
25
  3
ACAD_PLOTSETTINGS
350
26
  3
ACAD_PLOTSTYLENAME
350
8
  0
DICTIONARY
  5
13
330
12
100
AcDbDictionary
280
     1
281
     1
  3
ACAD_LAYERFILTERS
360
14
  3
ACAD_LAYERSTATES
360
15
  0
DICTIONARY
  5
3
330
2
100
AcDbDictionary
280
     1
281
     1
  3
ACAD_SORTENTS
360
4
  0
DICTIONARY
  5
28
102
{ACAD_REACTORS
330
9
102
}
330
9
100
AcDbDictionary
281
     1
  0
DICTIONARY
  5
24
102
{ACAD_REACTORS
330
9
102
}
330
9
100
AcDbDictionary
281
     1
  0
DICTIONARY
  5
D
102
{ACAD_REACTORS
330
9
102
}
330
9
100
AcDbDictionary
281
     1
  3
Layout1
350
11
  3
Model
350
C
  0
DICTIONARY
  5
27
102
{ACAD_REACTORS
330
9
102
}
330
9
100
AcDbDictionary
281
     1
  0
DICTIONARY
  5
25
102
{ACAD_REACTORS
330
9
102
}
330
9
100
AcDbDictionary
281
     1
  3
Standard
350
2A
  0
DICTIONARY
  5
26
102
{ACAD_REACTORS
330
9
102
}
330
9
100
AcDbDictionary
281
     1
  0
ACDBDICTIONARYWDFLT
  5
8
102
{ACAD_REACTORS
330
9
102
}
330
9
100
AcDbDictionary
281
     1
  3
Normal
350
7
100
AcDbDictionaryWithDefault
340
7
  0
DICTIONARY
  5
14
102
{ACAD_REACTORS
330
13
102
}
330
13
100
AcDbDictionary
281
     1
  0
DICTIONARY
  5
15
102
{ACAD_REACTORS
330
13
102
}
330
13
100
AcDbDictionary
281
     1
  0
SORTENTSTABLE
  5
4
102
{ACAD_REACTORS
330
3
102
}
330
3
100
AcDbSortentsTable
330
2
  0
LAYOUT
  5
11
102
{ACAD_REACTORS
330
D
102
}
330
D
100
AcDbPlotSettings
  1

  2
none_device
  4
Letter_(8.50_x_11.00_Inches)
  6

 40
6.349999904632568
 41
6.349999904632568
 42
6.350006103515625
 43
6.350006103515625
 44
215.8999938964844
 45
279.3999938964844
 46
0.0
 47
0.0
 48
0.0
 49
0.0
140
0.0
141
0.0
142
1.0
143
1.0
 70
   688
 72
     1
 73
     1
 74
     5
  7
pg_autos.ctb
 75
    16
147
1.0
 76
     0
 77
     2
 78
   300
148
0.0
149
0.0
100
AcDbLayout
  1
Layout1
 70
     1
 71
     1
 10
-6.350006103515625
 20
-6.349999904632568
 11
273.0499877929688
 21
209.5499939918518
 12
0.0
 22
0.0
 32
0.0
 14
26.66999878883363
 24
20.31999878883363
 34
0.0
 15
240.0299890995026
 25
182.8799890995025
 35
0.0
146
0.0
 13
0.0
 23
0.0
 33
0.0
 16
1.0
 26
0.0
 36
0.0
 17
0.0
 27
1.0
 37
0.0
 76
     0
330
E
  0
LAYOUT
  5
C
102
{ACAD_REACTORS
330
D
102
}
330
D
100
AcDbPlotSettings
  1

  2
Adobe PDF
  4
A4
  6

 40
3.174999952316284
 41
3.174999952316284
 42
3.175003051757812
 43
3.17498779296875
 44
209.9098358154297
 45
297.0318298339844
 46
87.21999999999999
 47
21.92
 48
-27336.51956575561
 49
-6883.626163327739
140
-25386.5195657556
141
-6653.626163327739
142
1.0
143
7.9
 70
 11940
 72
     1
 73
     1
 74
     4
  7
pg_autos.ctb
 75
     0
147
0.1265822784810126
 76
     0
 77
     2
 78
   300
148
27336.51956575561
149
6883.626163327739
100
AcDbLayout
  1
Model
 70
     1
 71
     0
 10
0.0
 20
0.0
 11
12.0
 21
9.0
 12
0.0
 22
0.0
 32
0.0
 14
0.0
 24
0.0
 34
0.0
 15
0.0
 25
0.0
 35
0.0
146
0.0
 13
0.0
 23
0.0
 33
0.0
 16
1.0
 26
0.0
 36
0.0
 17
0.0
 27
1.0
 37
0.0
 76
     0
330
2
  0
MLINESTYLE
  5
2A
102
{ACAD_REACTORS
330
25
102
}
330
25
100
AcDbMlineStyle
  2
STANDARD
 70
     0
  3

 62
   256
 51
90.0
 52
90.0
 71
     2
 49
0.5
 62
   256
  6
BYLAYER
 49
-0.5
 62
   256
  6
BYLAYER
  0
ACDBPLACEHOLDER
  5
7
102
{ACAD_REACTORS
330
8
102
}
330
8
  0
ENDSEC
  0
EOF
